<svg version="1.2" baseProfile="tiny-ps" xmlns="http://www.w3.org/2000/svg" viewBox="0 0 1474 847" width="1474" height="847">
	<title>1 (24)-svg</title>
	<defs>
		<clipPath clipPathUnits="userSpaceOnUse" id="cp1">
			<path d="M0 0L1474 0L1474 847L0 847L0 0Z" />
		</clipPath>
	</defs>
	<style>
		tspan { white-space:pre }
		.shp0 { fill: #ffffff } 
		.shp1 { fill: #274867 } 
		.shp2 { opacity: 0.502;fill: #274867 } 
		.shp3 { fill: none;stroke: #274867;stroke-width: 8 } 
		.shp4 { fill: #007bff } 
	</style>
	<g id="Clip-Path" clip-path="url(#cp1)">
		<g id="Layer">
			<path id="Layer" class="shp0" d="M0 0L1474 0L1474 847L0 847L0 0Z" />
			<path id="Layer" fill-rule="evenodd" class="shp1" d="M69.66 523L49.76 523L115.52 392.78L115.52 388.02L38.73 388.02L38.73 371.58L135.21 371.58L135.21 392.78L69.66 523ZM252.2 371.58L252.2 392.78L214.34 425.23L214.34 429.77C240.3 430.42 259.34 446.64 259.34 475.84C259.34 507.21 236.84 525.81 205.91 525.81C175.19 525.81 154.64 506.34 152.91 480.6L171.95 480.6C173.68 497.91 187.74 508.94 205.91 508.94C226.68 508.94 240.3 496.61 240.3 475.84C240.3 455.94 228.41 443.61 206.13 443.61C200.72 443.61 196.39 444.05 192.93 444.91L192.93 424.79L229.92 392.78L229.92 388.02L163.73 388.02L163.73 371.58L252.2 371.58ZM282.56 506.13L318.46 506.13L318.46 391.48L314.14 391.48L282.34 412.9L282.34 393L313.92 371.58L337.5 371.58L337.5 506.13L370.6 506.13L370.6 523L282.56 523L282.56 506.13ZM395.45 523L395.45 497.91L417.95 497.91L417.95 523L395.45 523ZM447.33 506.13L483.24 506.13L483.24 391.48L478.91 391.48L447.11 412.9L447.11 393L478.69 371.58L502.27 371.58L502.27 506.13L535.37 506.13L535.37 523L447.33 523L447.33 506.13ZM555.03 413.33C556.76 383.05 578.61 368.55 605.43 368.55C633.77 368.55 654.54 384.34 654.54 414.63C654.54 435.18 638.96 454.43 621.01 469.35L582.94 501.37L582.94 506.13L659.29 506.13L659.29 523L555.25 523L555.25 501.58L577.53 483.42C589.64 473.68 603.92 461.57 611.92 454.21C622.31 444.91 635.5 432.58 635.5 414.63C635.5 395.59 623.39 385.42 605 385.42C587.91 385.42 576.01 394.29 574.07 413.33L555.03 413.33ZM711 523L691.1 523L756.86 392.78L756.86 388.02L680.07 388.02L680.07 371.58L776.54 371.58L776.54 392.78L711 523ZM885.1 445.56C895.05 449.02 908.68 461.57 908.68 481.68C908.68 506.78 887.26 525.81 853.95 525.81C820.64 525.81 799.23 506.78 799.23 481.68C799.23 461.78 812.64 449.02 822.8 445.56L822.8 440.8C814.8 437.34 803.77 426.31 803.77 409C803.77 384.99 824.53 368.55 853.95 368.55C883.37 368.55 904.14 384.99 904.14 409C904.14 425.88 892.89 437.34 885.1 440.8L885.1 445.56ZM822.37 409.87C822.37 426.09 836.65 434.96 853.95 434.96C871.26 434.96 885.53 426.09 885.53 409.87C885.53 393.64 871.26 384.99 853.95 384.99C836.65 384.99 822.37 393.64 822.37 409.87ZM889.86 479.95C889.86 462 876.23 451.4 853.95 451.4C831.67 451.4 818.04 462 818.04 479.95C818.04 497.48 831.67 508.94 853.95 508.94C876.23 508.94 889.86 497.48 889.86 479.95ZM961.75 523L941.85 523L1007.61 392.78L1007.61 388.02L930.82 388.02L930.82 371.58L1027.29 371.58L1027.29 392.78L961.75 523Z" />
			<path id="Layer" fill-rule="evenodd" class="shp2" d="M1162.02 447.29C1162.02 501.8 1138.23 525.81 1106.21 525.81C1074.2 525.81 1050.62 501.8 1050.62 447.29C1050.62 392.78 1074.2 368.55 1106.21 368.55C1138.23 368.55 1162.02 392.78 1162.02 447.29ZM1142.99 447.29C1142.99 409.65 1131.52 385.42 1106.21 385.42C1081.12 385.42 1069.66 409.65 1069.66 447.29C1069.66 484.71 1081.12 508.94 1106.21 508.94C1131.52 508.94 1142.99 484.71 1142.99 447.29ZM1297.22 447.29C1297.22 501.8 1273.42 525.81 1241.41 525.81C1209.4 525.81 1185.82 501.8 1185.82 447.29C1185.82 392.78 1209.4 368.55 1241.41 368.55C1273.42 368.55 1297.22 392.78 1297.22 447.29ZM1278.18 447.29C1278.18 409.65 1266.72 385.42 1241.41 385.42C1216.32 385.42 1204.85 409.65 1204.85 447.29C1204.85 484.71 1216.32 508.94 1241.41 508.94C1266.72 508.94 1278.18 484.71 1278.18 447.29ZM1432.42 447.29C1432.42 501.8 1408.62 525.81 1376.61 525.81C1344.59 525.81 1321.01 501.8 1321.01 447.29C1321.01 392.78 1344.59 368.55 1376.61 368.55C1408.62 368.55 1432.42 392.78 1432.42 447.29ZM1413.38 447.29C1413.38 409.65 1401.92 385.42 1376.61 385.42C1351.51 385.42 1340.05 409.65 1340.05 447.29C1340.05 484.71 1351.51 508.94 1376.61 508.94C1401.92 508.94 1413.38 484.71 1413.38 447.29Z" />
			<path id="Layer" class="shp3" d="M24.55 584.17L1450.06 584.17" />
			<path id="Layer" class="shp3" d="M20.98 484.34L20.98 588.17" />
			<path id="Layer" class="shp3" d="M1454.06 484.34L1454.06 588.17" />
			<path id="Layer" class="shp3" d="M753.2 588.17L753.2 692" />
			<path id="Layer" class="shp3" d="M24.55 584.17L1450.06 584.17" />
			<path id="Layer" class="shp3" d="M20.98 484.34L20.98 588.17" />
			<path id="Layer" class="shp3" d="M1454.06 484.34L1454.06 588.17" />
			<path id="Layer" class="shp3" d="M753.2 588.17L753.2 692" />
			<path id="Layer" class="shp3" d="M456 233.83L1417 233.83" />
			<path id="Layer" class="shp3" d="M456 333.66L454 230" />
			<path id="Layer" class="shp3" d="M1421 333.66L1421 229.83" />
			<path id="Layer" class="shp3" d="M1026.82 229.83L1026.82 126" />
			<path id="Layer" fill-rule="evenodd" class="shp4" d="M931.43 66.4L937.13 67.3C945.93 68.8 951.53 73.3 951.53 82.5C951.53 90.8 944.43 98.3 930.83 98.3C916.53 98.3 909.53 92 908.43 82.4L917.03 82.4C917.83 88.1 922.83 90.9 930.43 90.9C938.03 90.9 943.03 88.2 943.03 82.7C943.03 78.3 940.23 75.9 933.83 74.8L922.53 72.9C915.33 71.6 910.43 67.8 910.43 60.2C910.43 51.8 916.73 45.3 930.33 45.3C942.23 45.3 949.13 50.9 950.23 59.7L941.73 59.7C941.03 54.9 936.23 52.7 929.93 52.7C923.43 52.7 919.03 55.1 919.03 59.4C919.03 63.3 921.53 64.8 926.63 65.6L931.43 66.4ZM1006.6 81.8C1004.7 91.7 997.1 98.3 985.4 98.3C969.7 98.3 960.9 86.7 960.9 71.8C960.9 56.6 969.7 45.3 985.4 45.3C997.4 45.3 1004.6 51.9 1006.3 61.2L997.8 61.2C996.2 56.1 992.3 52.7 985.4 52.7C974 52.7 969.4 61.6 969.4 71.6C969.4 81.7 974.1 90.9 985.4 90.9C992.6 90.9 996.8 87.4 998.1 81.8L1006.6 81.8ZM1051.37 91.7L1049.17 91.7C1046.07 95.6 1040.67 98.3 1033.47 98.3C1021.87 98.3 1015.37 90.5 1015.37 81.9C1015.37 73.8 1020.67 65.2 1034.67 65.2L1051.07 65.2L1051.07 63.2C1051.07 57.1 1047.57 52.7 1038.77 52.7C1031.27 52.7 1027.47 55.6 1027.07 60L1018.57 60C1019.27 50.7 1027.27 45.3 1038.57 45.3C1051.27 45.3 1059.37 51.4 1059.37 62.7L1059.37 97L1051.37 97L1051.37 91.7ZM1051.07 76.6L1051.07 72L1035.97 72C1027.67 72 1023.87 75.6 1023.87 81.6C1023.87 87.3 1028.07 90.9 1035.57 90.9C1043.97 90.9 1051.07 84.6 1051.07 76.6ZM1083.43 24.3L1083.43 97L1074.93 97L1074.93 24.3L1083.43 24.3ZM1143.54 71.7L1105.14 71.7C1105.44 83.7 1110.84 90.9 1121.24 90.9C1128.34 90.9 1132.54 87.9 1134.04 83.1L1142.64 83.1C1141.04 91.7 1133.74 98.3 1121.24 98.3C1105.54 98.3 1096.74 86.8 1096.74 71.3C1096.74 55.8 1105.74 45.3 1121.04 45.3C1136.04 45.3 1143.24 56.4 1143.54 68.8L1143.54 71.7ZM1105.64 64.6L1134.74 64.6C1134.24 58.2 1129.34 52.7 1120.84 52.7C1111.74 52.7 1106.74 58.2 1105.64 64.6Z" />
			<path id="Layer" fill-rule="evenodd" class="shp4" d="M547.43 744.6L547.43 750L549.63 750C552.43 746.5 557.33 743.3 565.33 743.3C579.23 743.3 587.43 754.9 587.43 769.8C587.43 785 579.23 796.3 565.33 796.3C557.33 796.3 552.63 793.2 549.93 789.6L547.73 789.6L547.73 815L539.23 815L539.23 744.6L547.43 744.6ZM547.63 769.8C547.63 779.7 552.23 788.9 563.43 788.9C573.53 788.9 578.93 781 578.93 769.8C578.93 758.6 573.53 750.7 563.43 750.7C552.23 750.7 547.63 759.9 547.63 769.8ZM629.55 752.6L625.36 752.6C615.36 752.6 609.25 758.7 609.25 769.8L609.25 795L600.75 795L600.75 744.6L608.96 744.6L608.96 750.6L611.15 750.6C613.65 747.5 618.46 744.6 625.75 744.6L629.55 744.6L629.55 752.6ZM684.4 769.7L646 769.7C646.3 781.7 651.7 788.9 662.1 788.9C669.2 788.9 673.4 785.9 674.9 781.1L683.5 781.1C681.9 789.7 674.6 796.3 662.1 796.3C646.4 796.3 637.6 784.8 637.6 769.3C637.6 753.8 646.6 743.3 661.9 743.3C676.9 743.3 684.1 754.4 684.4 766.8L684.4 769.7ZM646.5 762.6L675.6 762.6C675.1 756.2 670.2 750.7 661.7 750.7C652.6 750.7 647.6 756.2 646.5 762.6ZM740.23 779.8C738.33 789.7 730.73 796.3 719.03 796.3C703.33 796.3 694.53 784.7 694.53 769.8C694.53 754.6 703.33 743.3 719.03 743.3C731.03 743.3 738.23 749.9 739.93 759.2L731.43 759.2C729.83 754.1 725.93 750.7 719.03 750.7C707.63 750.7 703.03 759.6 703.03 769.6C703.03 779.7 707.73 788.9 719.03 788.9C726.23 788.9 730.43 785.4 731.73 779.8L740.23 779.8ZM752.9 731.5L752.9 722.3L761.9 722.3L761.9 731.5L752.9 731.5ZM761.6 795L753.1 795L753.1 744.6L761.6 744.6L761.6 795ZM797.09 764.4L802.79 765.3C811.59 766.8 817.19 771.3 817.19 780.5C817.19 788.8 810.09 796.3 796.49 796.3C782.19 796.3 775.19 790 774.09 780.4L782.69 780.4C783.49 786.1 788.49 788.9 796.09 788.9C803.69 788.9 808.69 786.2 808.69 780.7C808.69 776.3 805.89 773.9 799.49 772.8L788.19 770.9C780.99 769.6 776.09 765.8 776.09 758.2C776.09 749.8 782.39 743.3 795.99 743.3C807.89 743.3 814.79 748.9 815.89 757.7L807.39 757.7C806.69 752.9 801.89 750.7 795.59 750.7C789.09 750.7 784.69 753.1 784.69 757.4C784.69 761.3 787.19 762.8 792.29 763.6L797.09 764.4ZM829.66 731.5L829.66 722.3L838.66 722.3L838.66 731.5L829.66 731.5ZM838.36 795L829.86 795L829.86 744.6L838.36 744.6L838.36 795ZM901.55 769.8C901.55 784.7 892.45 796.3 876.75 796.3C860.95 796.3 851.95 784.7 851.95 769.8C851.95 754.9 860.95 743.3 876.75 743.3C892.45 743.3 901.55 754.9 901.55 769.8ZM893.05 769.8C893.05 759.9 887.85 750.7 876.75 750.7C865.55 750.7 860.45 759.9 860.45 769.8C860.45 779.7 865.55 788.9 876.75 788.9C887.85 788.9 893.05 779.7 893.05 769.8ZM951.12 795L951.12 764.8C951.12 755.5 946.82 750.9 938.32 750.9C929.32 750.9 923.32 758.8 923.32 767.7L923.32 795L914.82 795L914.82 744.6L923.02 744.6L923.02 750L925.22 750C928.02 746.1 933.62 743.3 940.42 743.3C952.82 743.3 959.62 750.9 959.62 763L959.62 795L951.12 795Z" />
		</g>
	</g>
</svg>