<?xml version="1.0" encoding="utf-8"?>
<!-- Generator: Adobe Illustrator 20.1.0, SVG Export Plug-In . SVG Version: 6.00 Build 0)  -->
<svg version="1.1" id="Layer_1" xmlns="http://www.w3.org/2000/svg" xmlns:xlink="http://www.w3.org/1999/xlink" x="0px" y="0px"
	 viewBox="0 0 1600 713.7" style="enable-background:new 0 0 1600 713.7;" xml:space="preserve">
<style type="text/css">
	.st0{fill:none;stroke:#007BFF;stroke-width:4;stroke-linecap:round;stroke-miterlimit:10;}
	.st1{opacity:0.12;fill:#007BFF;enable-background:new    ;}
	.st2{fill:#007BFF;}
	.st3{fill:none;stroke:#007BFF;stroke-width:4;stroke-linecap:round;stroke-linejoin:round;stroke-miterlimit:10;}
	.st4{fill:#082E51;}
	.st5{fill:none;stroke:#082E51;stroke-width:4;stroke-linecap:round;stroke-linejoin:round;stroke-miterlimit:10;}
</style>
<rect x="323.6" y="18.4" class="st0" width="405" height="303"/>
<line class="st0" x1="323.6" y1="120.4" x2="728.6" y2="120.4"/>
<line class="st0" x1="323.6" y1="220.9" x2="728.6" y2="220.9"/>
<rect x="1046.6" y="18.4" class="st0" width="405" height="303"/>
<line class="st0" x1="1046.6" y1="120.4" x2="1451.6" y2="120.4"/>
<line class="st0" x1="1046.6" y1="220.9" x2="1451.6" y2="220.9"/>
<path class="st0" d="M331.5,622.9h-279c-6.9,0-12.5-5.6-12.5-12.5v-193c0-6.9,5.6-12.5,12.5-12.5h279c6.9,0,12.5,5.6,12.5,12.5v193
	C344,617.3,338.4,622.9,331.5,622.9z"/>
<path class="st0" d="M1452.1,559.8V405.5c0-3.7,3-6.6,6.6-6.6h98.5c3.7,0,6.6,3,6.6,6.6v154.3c0,3.7-3,6.6-6.6,6.6h-98.5
	C1455.1,566.4,1452.1,563.5,1452.1,559.8z"/>
<path class="st1" d="M1464,551.2V414.1c0-3.1,2.5-5.5,5.5-5.5h76.8c3.1,0,5.5,2.5,5.5,5.5v137.1c0,3.1-2.5,5.5-5.5,5.5h-76.8
	C1466.5,556.8,1464,554.3,1464,551.2z"/>
<line class="st0" x1="40" y1="450.3" x2="344" y2="450.3"/>
<circle class="st0" cx="258" cy="432.3" r="7.3"/>
<circle class="st0" cx="288.1" cy="432.3" r="7.3"/>
<circle class="st0" cx="316.3" cy="432.3" r="7.3"/>
<path class="st2" d="M247.6,559.8l-34.4-33.2l12.3-12.8c0.8-0.8,0.4-2.1-0.6-2.4l-61.9-19.3c-1.2-0.4-2.2,0.7-1.8,1.9l21.6,61.1
	c0.4,1,1.7,1.3,2.4,0.5l12.3-12.8l34.4,33.2c0.7,0.6,1.7,0.6,2.4,0l13.2-13.7C248.3,561.5,248.3,560.4,247.6,559.8z"/>
<path class="st0" d="M1569.3,589.6h-122.6c-4,0-7.2-3.2-7.2-7.2l0,0c0-4,3.2-7.2,7.2-7.2h122.6c4,0,7.2,3.2,7.2,7.2l0,0
	C1576.5,586.3,1573.2,589.6,1569.3,589.6z"/>
<g>
	<path pointer-events="none" class="st2" d="M1389.2,568.6l6.2-13.6l-7-13.1l27.1,12.7L1389.2,568.6z"/>
	<line class="st3" x1="1395.5" y1="555" x2="1080.7" y2="555"/>
</g>
<g>
	<path pointer-events="none" class="st4" d="M1080.7,454.6l27.1-12.7l-7,13.1l6.2,13.6L1080.7,454.6z"/>
	<line class="st5" x1="1100.8" y1="455" x2="1415.6" y2="455"/>
</g>
<g>
	<path pointer-events="none" class="st2" d="M652.6,477l6.2-13.6l-7-13.1L679,463L652.6,477z"/>
	<line class="st3" x1="658.8" y1="463.4" x2="376" y2="463.4"/>
</g>
<g>
	<path pointer-events="none" class="st4" d="M380.4,555.5l27.1-12.7l-7,13.1l6.2,13.6L380.4,555.5z"/>
	<line class="st5" x1="400.6" y1="555.9" x2="683.4" y2="555.9"/>
</g>
<g>
	<path class="st4" d="M411.1,396v30h-3.8v-13.7h-16.8V426h-3.8v-30h3.8v12.8h16.8V396H411.1z"/>
	<path class="st4" d="M439.2,399.4h-9.8V426h-3.8v-26.6h-9.9V396h23.5V399.4z"/>
	<path class="st4" d="M466,399.4h-9.8V426h-3.8v-26.6h-9.9V396H466V399.4z"/>
	<path class="st4" d="M483.3,396c6.6,0,10.2,3.4,10.2,8.9c0,5.7-3.6,9-10.2,9h-8.9v12h-3.8v-30H483.3z M482.7,410.6
		c5.1,0,7-2.1,7-5.6c0-3.5-1.8-5.6-7-5.6h-8.3v11.3H482.7z"/>
	<path class="st4" d="M524.4,396c6.3,0,9.9,3.2,9.9,8.7c0,3.7-1.6,6.3-4.6,7.7l4.8,13.6h-3.9l-4.5-12.7c-0.8,0.1-1.6,0.1-2.4,0.1
		h-8.7V426h-3.8v-30H524.4z M523.9,410.1c4.8,0,6.6-2,6.6-5.3c0-3.4-1.8-5.4-6.6-5.4h-8.9v10.7H523.9z"/>
	<path class="st4" d="M558.9,415.4h-16.1c0.1,5,2.4,8.1,6.8,8.1c3,0,4.7-1.3,5.4-3.3h3.6c-0.7,3.6-3.7,6.4-9,6.4
		c-6.6,0-10.3-4.8-10.3-11.3s3.8-10.9,10.2-10.9c6.3,0,9.3,4.7,9.5,9.9V415.4z M543,412.4h12.2c-0.2-2.7-2.3-5-5.8-5
		C545.5,407.4,543.4,409.7,543,412.4z"/>
	<path class="st4" d="M583.4,404.8v29.6h-3.6v-10.7h-0.9c-1.2,1.5-3.1,2.8-6.5,2.8c-5.8,0-9.3-4.7-9.3-11.1c0-6.3,3.4-11.1,9.3-11.1
		c3.4,0,5.4,1.3,6.6,2.8h0.9v-2.3H583.4z M566.7,415.4c0,4.7,2.3,8,6.5,8c4.7,0,6.6-3.9,6.6-8s-1.9-8-6.6-8
		C569,407.4,566.7,410.7,566.7,415.4z"/>
	<path class="st4" d="M593.5,404.8v12.7c0,3.9,1.8,5.8,5.4,5.8c3.7,0,6.3-3.2,6.3-7.1v-11.5h3.6V426h-3.4v-2.3h-0.9
		c-1.2,1.6-3.5,2.8-6.4,2.8c-5.2,0-8.1-3.2-8.1-8.3v-13.4H593.5z"/>
	<path class="st4" d="M634,415.4h-16.1c0.1,5,2.4,8.1,6.8,8.1c3,0,4.7-1.3,5.4-3.3h3.6c-0.7,3.6-3.7,6.4-9,6.4
		c-6.6,0-10.3-4.8-10.3-11.3s3.8-10.9,10.2-10.9c6.3,0,9.3,4.7,9.5,9.9V415.4z M618.1,412.4h12.2c-0.2-2.7-2.3-5-5.8-5
		C620.6,407.4,618.5,409.7,618.1,412.4z"/>
	<path class="st4" d="M647.4,413.1l2.4,0.4c3.7,0.6,6,2.5,6,6.4c0,3.5-3,6.6-8.7,6.6c-6,0-8.9-2.6-9.4-6.7h3.6
		c0.3,2.4,2.4,3.6,5.6,3.6s5.3-1.1,5.3-3.4c0-1.8-1.2-2.9-3.9-3.3l-4.7-0.8c-3-0.5-5.1-2.1-5.1-5.3c0-3.5,2.6-6.3,8.4-6.3
		c5,0,7.9,2.4,8.4,6h-3.6c-0.3-2-2.3-2.9-5-2.9c-2.7,0-4.6,1-4.6,2.8c0,1.6,1,2.3,3.2,2.6L647.4,413.1z"/>
	<path class="st4" d="M671.4,404.8v3.1H666v11.6c0,2.1,0.9,3.2,3.8,3.2h1.6v3.2h-1.6c-4.6,0-7.3-1.4-7.3-5.9v-12.1h-3.7v-3.1h3.7
		v-6.4h3.6v6.4H671.4z"/>
</g>
<g>
	<path class="st4" d="M1119.1,396v30h-3.8v-13.7h-16.8V426h-3.8v-30h3.8v12.8h16.8V396H1119.1z"/>
	<path class="st4" d="M1147.2,399.4h-9.8V426h-3.8v-26.6h-9.9V396h23.5V399.4z"/>
	<path class="st4" d="M1174,399.4h-9.8V426h-3.8v-26.6h-9.9V396h23.5V399.4z"/>
	<path class="st4" d="M1191.3,396c6.6,0,10.2,3.4,10.2,8.9c0,5.7-3.6,9-10.2,9h-8.9v12h-3.8v-30H1191.3z M1190.7,410.6
		c5.1,0,7-2.1,7-5.6c0-3.5-1.8-5.6-7-5.6h-8.3v11.3H1190.7z"/>
	<path class="st4" d="M1232.4,396c6.3,0,9.9,3.2,9.9,8.7c0,3.7-1.6,6.3-4.6,7.7l4.8,13.6h-3.9l-4.5-12.7c-0.8,0.1-1.6,0.1-2.4,0.1
		h-8.7V426h-3.8v-30H1232.4z M1231.9,410.1c4.8,0,6.6-2,6.6-5.3c0-3.4-1.8-5.4-6.6-5.4h-8.9v10.7H1231.9z"/>
	<path class="st4" d="M1266.9,415.4h-16.1c0.1,5,2.4,8.1,6.8,8.1c3,0,4.7-1.3,5.4-3.3h3.6c-0.7,3.6-3.7,6.4-9,6.4
		c-6.6,0-10.3-4.8-10.3-11.3s3.8-10.9,10.2-10.9c6.3,0,9.3,4.7,9.5,9.9V415.4z M1251,412.4h12.2c-0.2-2.7-2.3-5-5.8-5
		C1253.5,407.4,1251.4,409.7,1251,412.4z"/>
	<path class="st4" d="M1280.3,413.1l2.4,0.4c3.7,0.6,6,2.5,6,6.4c0,3.5-3,6.6-8.7,6.6c-6,0-8.9-2.6-9.4-6.7h3.6
		c0.3,2.4,2.4,3.6,5.6,3.6c3.2,0,5.3-1.1,5.3-3.4c0-1.8-1.2-2.9-3.9-3.3l-4.7-0.8c-3-0.5-5.1-2.1-5.1-5.3c0-3.5,2.6-6.3,8.4-6.3
		c5,0,7.9,2.4,8.4,6h-3.6c-0.3-2-2.3-2.9-5-2.9c-2.7,0-4.6,1-4.6,2.8c0,1.6,1,2.3,3.2,2.6L1280.3,413.1z"/>
	<path class="st4" d="M1297.5,404.8v2.3h0.9c1.2-1.5,3.2-2.8,6.6-2.8c5.8,0,9.3,4.9,9.3,11.1c0,6.4-3.4,11.1-9.3,11.1
		c-3.4,0-5.3-1.3-6.5-2.8h-0.9v10.7h-3.6v-29.6H1297.5z M1297.6,415.4c0,4.2,1.9,8,6.6,8c4.2,0,6.5-3.3,6.5-8c0-4.7-2.3-8-6.5-8
		C1299.5,407.4,1297.6,411.3,1297.6,415.4z"/>
	<path class="st4" d="M1339.4,415.4c0,6.3-3.8,11.1-10.4,11.1c-6.6,0-10.4-4.9-10.4-11.1s3.8-11.1,10.4-11.1
		C1335.6,404.3,1339.4,409.2,1339.4,415.4z M1335.8,415.4c0-4.2-2.2-8-6.8-8c-4.7,0-6.8,3.9-6.8,8s2.1,8,6.8,8
		C1333.6,423.4,1335.8,419.6,1335.8,415.4z"/>
	<path class="st4" d="M1360.2,426v-12.7c0-3.9-1.8-5.8-5.4-5.8c-3.8,0-6.3,3.3-6.3,7.1V426h-3.6v-21.2h3.4v2.3h0.9
		c1.2-1.6,3.5-2.8,6.4-2.8c5.2,0,8.1,3.2,8.1,8.3V426H1360.2z"/>
	<path class="st4" d="M1378.2,413.1l2.4,0.4c3.7,0.6,6,2.5,6,6.4c0,3.5-3,6.6-8.7,6.6c-6,0-8.9-2.6-9.4-6.7h3.6
		c0.3,2.4,2.4,3.6,5.6,3.6s5.3-1.1,5.3-3.4c0-1.8-1.2-2.9-3.9-3.3l-4.7-0.8c-3-0.5-5.1-2.1-5.1-5.3c0-3.5,2.6-6.3,8.4-6.3
		c5,0,7.9,2.4,8.4,6h-3.6c-0.3-2-2.3-2.9-5-2.9c-2.7,0-4.6,1-4.6,2.8c0,1.6,1,2.3,3.2,2.6L1378.2,413.1z"/>
	<path class="st4" d="M1410.3,415.4h-16.1c0.1,5,2.4,8.1,6.8,8.1c3,0,4.7-1.3,5.4-3.3h3.6c-0.7,3.6-3.7,6.4-9,6.4
		c-6.6,0-10.3-4.8-10.3-11.3s3.8-10.9,10.2-10.9c6.3,0,9.3,4.7,9.5,9.9V415.4z M1394.4,412.4h12.2c-0.2-2.7-2.3-5-5.8-5
		C1396.9,407.4,1394.8,409.7,1394.4,412.4z"/>
</g>
<g>
	<path class="st4" d="M1138.1,271c0,8.6-4.9,15.5-14,15.5c-9.2,0-14-6.9-14-15.5c0-8.6,4.8-15.5,14-15.5
		C1133.2,255.5,1138.1,262.4,1138.1,271z M1134.3,271c0-6.3-3-12.1-10.2-12.1s-10.2,5.8-10.2,12.1c0,6.3,3,12.1,10.2,12.1
		S1134.3,277.3,1134.3,271z"/>
	<path class="st4" d="M1147.3,264.8v2.3h0.9c1.2-1.5,3.2-2.8,6.6-2.8c5.8,0,9.3,4.9,9.3,11.1c0,6.4-3.4,11.1-9.3,11.1
		c-3.4,0-5.3-1.3-6.5-2.8h-0.9v10.7h-3.6v-29.6H1147.3z M1147.4,275.4c0,4.2,1.9,8,6.6,8c4.2,0,6.5-3.3,6.5-8c0-4.7-2.3-8-6.5-8
		C1149.3,267.4,1147.4,271.3,1147.4,275.4z"/>
	<path class="st4" d="M1179.9,264.8v3.1h-5.3v11.6c0,2.1,0.9,3.2,3.8,3.2h1.6v3.2h-1.6c-4.6,0-7.3-1.4-7.3-5.9v-12.1h-3.7v-3.1h3.7
		v-6.4h3.6v6.4H1179.9z"/>
	<path class="st4" d="M1185.8,259.3v-3.9h3.8v3.9H1185.8z M1189.5,286h-3.6v-21.2h3.6V286z"/>
	<path class="st4" d="M1216,275.4c0,6.3-3.8,11.1-10.4,11.1c-6.6,0-10.4-4.9-10.4-11.1s3.8-11.1,10.4-11.1
		C1212.2,264.3,1216,269.2,1216,275.4z M1212.4,275.4c0-4.2-2.2-8-6.8-8c-4.7,0-6.8,3.9-6.8,8s2.1,8,6.8,8
		C1210.2,283.4,1212.4,279.6,1212.4,275.4z"/>
	<path class="st4" d="M1236.8,286v-12.7c0-3.9-1.8-5.8-5.4-5.8c-3.8,0-6.3,3.3-6.3,7.1V286h-3.6v-21.2h3.4v2.3h0.9
		c1.2-1.6,3.5-2.8,6.4-2.8c5.2,0,8.1,3.2,8.1,8.3V286H1236.8z"/>
	<path class="st4" d="M1260.4,283.8h-0.9c-1.3,1.6-3.6,2.8-6.6,2.8c-4.9,0-7.6-3.3-7.6-6.9c0-3.4,2.2-7,8.1-7h6.9v-0.8
		c0-2.6-1.5-4.4-5.2-4.4c-3.2,0-4.7,1.2-4.9,3.1h-3.6c0.3-3.9,3.7-6.2,8.4-6.2c5.3,0,8.7,2.6,8.7,7.3V286h-3.4V283.8z M1260.3,277.4
		v-1.9h-6.3c-3.5,0-5.1,1.5-5.1,4c0,2.4,1.8,3.9,4.9,3.9C1257.3,283.4,1260.3,280.8,1260.3,277.4z"/>
	<path class="st4" d="M1273.9,255.5V286h-3.6v-30.5H1273.9z"/>
	<path class="st4" d="M1312.7,275.4c0,6.3-3.4,11.1-9.3,11.1c-3.4,0-5.4-1.3-6.6-2.8h-0.9v2.3h-3.4v-30.5h3.6v11.6h0.9
		c1.1-1.5,3.1-2.8,6.5-2.8C1309.3,264.3,1312.7,269,1312.7,275.4z M1309.2,275.4c0-4.7-2.3-8-6.5-8c-4.7,0-6.6,3.9-6.6,8
		s1.9,8,6.6,8C1306.9,283.4,1309.2,280.1,1309.2,275.4z"/>
	<path class="st4" d="M1337.8,275.4c0,6.3-3.8,11.1-10.4,11.1c-6.6,0-10.4-4.9-10.4-11.1s3.8-11.1,10.4-11.1
		C1334,264.3,1337.8,269.2,1337.8,275.4z M1334.3,275.4c0-4.2-2.2-8-6.8-8c-4.7,0-6.8,3.9-6.8,8s2.1,8,6.8,8
		C1332.1,283.4,1334.3,279.6,1334.3,275.4z"/>
	<path class="st4" d="M1362.4,255.5V286h-3.4v-2.3h-0.9c-1.2,1.5-3.2,2.8-6.6,2.8c-5.8,0-9.3-4.9-9.3-11.1c0-6.4,3.4-11.1,9.3-11.1
		c3.4,0,5.3,1.3,6.5,2.8h0.9v-11.6H1362.4z M1358.9,275.4c0-4.2-1.9-8-6.6-8c-4.2,0-6.5,3.3-6.5,8c0,4.7,2.3,8,6.5,8
		C1356.9,283.4,1358.9,279.6,1358.9,275.4z"/>
	<path class="st4" d="M1371.4,294.4l4.4-10.4l-9-19.2h3.8l6.5,13.9h1l5.9-13.9h3.7l-12.7,29.6H1371.4z"/>
</g>
<g>
	<path class="st4" d="M413.3,270.3c0,8.6-4.9,15.5-14,15.5c-9.2,0-14-6.9-14-15.5c0-8.6,4.8-15.5,14-15.5
		C408.4,254.8,413.3,261.7,413.3,270.3z M409.5,270.3c0-6.3-3-12.1-10.2-12.1s-10.2,5.8-10.2,12.1c0,6.3,3,12.1,10.2,12.1
		S409.5,276.6,409.5,270.3z"/>
	<path class="st4" d="M422.5,264.1v2.3h0.9c1.2-1.5,3.2-2.8,6.6-2.8c5.8,0,9.3,4.9,9.3,11.1c0,6.4-3.4,11.1-9.3,11.1
		c-3.4,0-5.3-1.3-6.5-2.8h-0.9v10.7H419v-29.6H422.5z M422.6,274.7c0,4.2,1.9,8,6.6,8c4.2,0,6.5-3.3,6.5-8c0-4.7-2.3-8-6.5-8
		C424.5,266.7,422.6,270.6,422.6,274.7z"/>
	<path class="st4" d="M455.1,264.1v3.1h-5.3v11.6c0,2.1,0.9,3.2,3.8,3.2h1.6v3.2h-1.6c-4.6,0-7.3-1.4-7.3-5.9v-12.1h-3.7v-3.1h3.7
		v-6.4h3.6v6.4H455.1z"/>
	<path class="st4" d="M461,258.6v-3.9h3.8v3.9H461z M464.7,285.3h-3.6v-21.2h3.6V285.3z"/>
	<path class="st4" d="M491.2,274.7c0,6.3-3.8,11.1-10.4,11.1c-6.6,0-10.4-4.9-10.4-11.1s3.8-11.1,10.4-11.1
		C487.4,263.6,491.2,268.5,491.2,274.7z M487.6,274.7c0-4.2-2.2-8-6.8-8c-4.7,0-6.8,3.9-6.8,8s2.1,8,6.8,8
		C485.4,282.8,487.6,278.9,487.6,274.7z"/>
	<path class="st4" d="M512,285.3v-12.7c0-3.9-1.8-5.8-5.4-5.8c-3.8,0-6.3,3.3-6.3,7.1v11.5h-3.6v-21.2h3.4v2.3h0.9
		c1.2-1.6,3.5-2.8,6.4-2.8c5.2,0,8.1,3.2,8.1,8.3v13.4H512z"/>
	<path class="st4" d="M535.6,283.1h-0.9c-1.3,1.6-3.6,2.8-6.6,2.8c-4.9,0-7.6-3.3-7.6-6.9c0-3.4,2.2-7,8.1-7h6.9v-0.8
		c0-2.6-1.5-4.4-5.2-4.4c-3.2,0-4.7,1.2-4.9,3.1h-3.6c0.3-3.9,3.7-6.2,8.4-6.2c5.3,0,8.7,2.6,8.7,7.3v14.4h-3.4V283.1z M535.5,276.7
		v-1.9h-6.3c-3.5,0-5.1,1.5-5.1,4c0,2.4,1.8,3.9,4.9,3.9C532.5,282.8,535.5,280.1,535.5,276.7z"/>
	<path class="st4" d="M549.1,254.8v30.5h-3.6v-30.5H549.1z"/>
	<path class="st4" d="M587.9,274.7c0,6.3-3.4,11.1-9.3,11.1c-3.4,0-5.4-1.3-6.6-2.8h-0.9v2.3h-3.4v-30.5h3.6v11.6h0.9
		c1.1-1.5,3.1-2.8,6.5-2.8C584.5,263.6,587.9,268.3,587.9,274.7z M584.4,274.7c0-4.7-2.3-8-6.5-8c-4.7,0-6.6,3.9-6.6,8s1.9,8,6.6,8
		C582.1,282.8,584.4,279.4,584.4,274.7z"/>
	<path class="st4" d="M613,274.7c0,6.3-3.8,11.1-10.4,11.1c-6.6,0-10.4-4.9-10.4-11.1s3.8-11.1,10.4-11.1
		C609.2,263.6,613,268.5,613,274.7z M609.5,274.7c0-4.2-2.2-8-6.8-8c-4.7,0-6.8,3.9-6.8,8s2.1,8,6.8,8
		C607.3,282.8,609.5,278.9,609.5,274.7z"/>
	<path class="st4" d="M637.6,254.8v30.5h-3.4V283h-0.9c-1.2,1.5-3.2,2.8-6.6,2.8c-5.8,0-9.3-4.9-9.3-11.1c0-6.4,3.4-11.1,9.3-11.1
		c3.4,0,5.3,1.3,6.5,2.8h0.9v-11.6H637.6z M634,274.7c0-4.2-1.9-8-6.6-8c-4.2,0-6.5,3.3-6.5,8c0,4.7,2.3,8,6.5,8
		C632.1,282.8,634,278.9,634,274.7z"/>
	<path class="st4" d="M646.6,293.7l4.4-10.4l-9-19.2h3.8l6.5,13.9h1.1l5.9-13.9h3.7l-12.7,29.6H646.6z"/>
</g>
<g>
	<path class="st4" d="M1194,154.5v30h-3.8v-13.7h-16.8v13.7h-3.8v-30h3.8v12.8h16.8v-12.8H1194z"/>
	<path class="st4" d="M1219.6,173.8h-16.1c0.1,5,2.4,8.1,6.8,8.1c3,0,4.7-1.3,5.4-3.3h3.6c-0.7,3.6-3.7,6.4-9,6.4
		c-6.6,0-10.3-4.8-10.3-11.3s3.8-10.9,10.2-10.9c6.3,0,9.3,4.7,9.5,9.9V173.8z M1203.6,170.9h12.2c-0.2-2.7-2.3-5-5.8-5
		C1206.2,165.9,1204.1,168.2,1203.6,170.9z"/>
	<path class="st4" d="M1238.6,182.2h-0.9c-1.3,1.6-3.6,2.8-6.6,2.8c-4.9,0-7.6-3.3-7.6-6.9c0-3.4,2.2-7,8.1-7h6.9v-0.8
		c0-2.6-1.5-4.4-5.2-4.4c-3.2,0-4.7,1.2-4.9,3.1h-3.6c0.3-3.9,3.7-6.2,8.4-6.2c5.3,0,8.7,2.6,8.7,7.3v14.4h-3.4V182.2z
		 M1238.5,175.9V174h-6.3c-3.5,0-5.1,1.5-5.1,4c0,2.4,1.8,3.9,4.9,3.9C1235.5,181.9,1238.5,179.3,1238.5,175.9z"/>
	<path class="st4" d="M1267.5,153.9v30.5h-3.4v-2.3h-0.9c-1.2,1.5-3.2,2.8-6.6,2.8c-5.8,0-9.3-4.9-9.3-11.1c0-6.4,3.4-11.1,9.3-11.1
		c3.4,0,5.3,1.3,6.5,2.8h0.9v-11.6H1267.5z M1263.9,173.9c0-4.2-1.9-8-6.6-8c-4.2,0-6.5,3.3-6.5,8c0,4.7,2.3,8,6.5,8
		C1262,181.9,1263.9,178,1263.9,173.9z"/>
	<path class="st4" d="M1292.7,173.8h-16.1c0.1,5,2.4,8.1,6.8,8.1c3,0,4.7-1.3,5.4-3.3h3.6c-0.7,3.6-3.7,6.4-9,6.4
		c-6.6,0-10.3-4.8-10.3-11.3s3.8-10.9,10.2-10.9c6.3,0,9.3,4.7,9.5,9.9V173.8z M1276.8,170.9h12.2c-0.2-2.7-2.3-5-5.8-5
		C1279.3,165.9,1277.2,168.2,1276.8,170.9z"/>
	<path class="st4" d="M1310.3,166.7h-1.8c-4.2,0-6.8,2.6-6.8,7.2v10.6h-3.6v-21.2h3.4v2.5h0.9c1-1.3,3.1-2.5,6.1-2.5h1.6V166.7z"/>
	<path class="st4" d="M1322.9,171.6l2.4,0.4c3.7,0.6,6,2.5,6,6.4c0,3.5-3,6.6-8.7,6.6c-6,0-8.9-2.6-9.4-6.7h3.6
		c0.3,2.4,2.4,3.6,5.6,3.6s5.3-1.1,5.3-3.4c0-1.8-1.2-2.9-3.9-3.3l-4.7-0.8c-3-0.5-5.1-2.1-5.1-5.3c0-3.5,2.6-6.3,8.4-6.3
		c5,0,7.9,2.4,8.4,6h-3.6c-0.3-2-2.3-2.9-5-2.9c-2.7,0-4.6,1-4.6,2.8c0,1.6,1,2.3,3.2,2.6L1322.9,171.6z"/>
</g>
<g>
	<path class="st4" d="M469,154.5v30h-3.8v-13.7h-16.8v13.7h-3.8v-30h3.8v12.8h16.8v-12.8H469z"/>
	<path class="st4" d="M494.6,173.8h-16.1c0.1,5,2.4,8.1,6.8,8.1c3,0,4.7-1.3,5.4-3.3h3.6c-0.7,3.6-3.7,6.4-9,6.4
		c-6.6,0-10.3-4.8-10.3-11.3s3.8-10.9,10.2-10.9c6.3,0,9.3,4.7,9.5,9.9V173.8z M478.6,170.9h12.2c-0.2-2.7-2.3-5-5.8-5
		C481.2,165.9,479.1,168.2,478.6,170.9z"/>
	<path class="st4" d="M513.6,182.2h-0.9c-1.3,1.6-3.6,2.8-6.6,2.8c-4.9,0-7.6-3.3-7.6-6.9c0-3.4,2.2-7,8.1-7h6.9v-0.8
		c0-2.6-1.5-4.4-5.2-4.4c-3.2,0-4.7,1.2-4.9,3.1h-3.6c0.3-3.9,3.7-6.2,8.4-6.2c5.3,0,8.7,2.6,8.7,7.3v14.4h-3.4V182.2z M513.5,175.9
		V174h-6.3c-3.5,0-5.1,1.5-5.1,4c0,2.4,1.8,3.9,4.9,3.9C510.5,181.9,513.5,179.3,513.5,175.9z"/>
	<path class="st4" d="M542.5,153.9v30.5H539v-2.3h-0.9c-1.2,1.5-3.2,2.8-6.6,2.8c-5.8,0-9.3-4.9-9.3-11.1c0-6.4,3.4-11.1,9.3-11.1
		c3.4,0,5.3,1.3,6.5,2.8h0.9v-11.6H542.5z M538.9,173.9c0-4.2-1.9-8-6.6-8c-4.2,0-6.5,3.3-6.5,8c0,4.7,2.3,8,6.5,8
		C537,181.9,538.9,178,538.9,173.9z"/>
	<path class="st4" d="M567.7,173.8h-16.1c0.1,5,2.4,8.1,6.8,8.1c3,0,4.7-1.3,5.4-3.3h3.6c-0.7,3.6-3.7,6.4-9,6.4
		c-6.6,0-10.3-4.8-10.3-11.3s3.8-10.9,10.2-10.9c6.3,0,9.3,4.7,9.5,9.9V173.8z M551.8,170.9H564c-0.2-2.7-2.3-5-5.8-5
		C554.3,165.9,552.2,168.2,551.8,170.9z"/>
	<path class="st4" d="M585.3,166.7h-1.8c-4.2,0-6.8,2.6-6.8,7.2v10.6h-3.6v-21.2h3.4v2.5h0.9c1.1-1.3,3.1-2.5,6.1-2.5h1.6V166.7z"/>
	<path class="st4" d="M597.9,171.6l2.4,0.4c3.7,0.6,6,2.5,6,6.4c0,3.5-3,6.6-8.7,6.6c-6,0-8.9-2.6-9.4-6.7h3.6
		c0.3,2.4,2.4,3.6,5.6,3.6c3.2,0,5.3-1.1,5.3-3.4c0-1.8-1.2-2.9-3.9-3.3l-4.7-0.8c-3-0.5-5.1-2.1-5.1-5.3c0-3.5,2.6-6.3,8.4-6.3
		c5,0,7.9,2.4,8.4,6h-3.6c-0.3-2-2.3-2.9-5-2.9c-2.7,0-4.6,1-4.6,2.8c0,1.6,1,2.3,3.2,2.6L597.9,171.6z"/>
</g>
<g>
	<path class="st4" d="M354.6,55.5h6.3l7.6,14.1h0.9l7.4-14.1h6.3v30h-3.7V59.8h-0.9L370.9,74h-3.9l-7.7-14.2h-0.9v25.7h-3.7V55.5z"
		/>
	<path class="st4" d="M408.8,74.8h-16.1c0.1,5,2.4,8.1,6.8,8.1c3,0,4.7-1.3,5.4-3.3h3.6c-0.7,3.6-3.7,6.4-9,6.4
		c-6.6,0-10.3-4.8-10.3-11.3s3.8-10.9,10.2-10.9c6.3,0,9.3,4.7,9.5,9.9V74.8z M392.9,71.9h12.2c-0.2-2.7-2.3-5-5.8-5
		C395.5,66.9,393.4,69.2,392.9,71.9z"/>
	<path class="st4" d="M424.6,64.3v3.1h-5.3V79c0,2.1,0.9,3.2,3.8,3.2h1.6v3.2H423c-4.6,0-7.3-1.4-7.3-5.9V67.4H412v-3.1h3.7v-6.4
		h3.6v6.4H424.6z"/>
	<path class="st4" d="M445.7,85.5V72.8c0-3.8-1.8-5.8-5.4-5.8c-3.8,0-6.3,3.3-6.3,7.1v11.5h-3.6V54.9h3.6v11.6h0.9
		c1.1-1.6,3.4-2.8,6.3-2.8c5.2,0,8,3.2,8,8.3v13.4H445.7z"/>
	<path class="st4" d="M475.4,74.9c0,6.3-3.8,11.1-10.4,11.1c-6.6,0-10.4-4.9-10.4-11.1s3.8-11.1,10.4-11.1
		C471.6,63.7,475.4,68.6,475.4,74.9z M471.8,74.9c0-4.2-2.2-8-6.8-8c-4.7,0-6.8,3.9-6.8,8s2.1,8,6.8,8
		C469.6,82.9,471.8,79,471.8,74.9z"/>
	<path class="st4" d="M499.9,54.9v30.5h-3.4v-2.3h-0.9c-1.2,1.5-3.2,2.8-6.6,2.8c-5.8,0-9.3-4.9-9.3-11.1c0-6.4,3.4-11.1,9.3-11.1
		c3.4,0,5.3,1.3,6.5,2.8h0.9V54.9H499.9z M496.4,74.9c0-4.2-1.9-8-6.6-8c-4.2,0-6.5,3.3-6.5,8c0,4.7,2.3,8,6.5,8
		C494.5,82.9,496.4,79,496.4,74.9z"/>
</g>
<g>
	<path class="st4" d="M588.1,58.8h-9.8v26.6h-3.8V58.8h-9.9v-3.4h23.5V58.8z"/>
	<path class="st4" d="M601.9,83.2h-0.9c-1.3,1.6-3.6,2.8-6.6,2.8c-4.9,0-7.6-3.3-7.6-6.9c0-3.4,2.2-7,8.1-7h6.9v-0.8
		c0-2.6-1.5-4.4-5.2-4.4c-3.2,0-4.7,1.2-4.9,3.1h-3.6c0.3-3.9,3.7-6.2,8.4-6.2c5.3,0,8.7,2.6,8.7,7.3v14.4h-3.4V83.2z M601.7,76.9
		V75h-6.3c-3.5,0-5.1,1.5-5.1,4c0,2.4,1.8,3.9,4.9,3.9C598.7,82.9,601.7,80.3,601.7,76.9z"/>
	<path class="st4" d="M623.9,67.7h-1.8c-4.2,0-6.8,2.6-6.8,7.2v10.6h-3.6V64.3h3.4v2.5h0.9c1.1-1.3,3.1-2.5,6.1-2.5h1.6V67.7z"/>
	<path class="st4" d="M647.5,64.3v20.1c0,5.9-3.7,9.7-9.9,9.7c-5.4,0-8.9-2.3-9.6-6.5h3.5c0.6,2.5,2.8,3.4,6,3.4
		c4.4,0,6.3-2.6,6.3-6.9v-1.7H643c-1.1,1.5-3.2,2.8-6.3,2.8c-5.8,0-9.4-4.6-9.4-10.8c0-6.2,3.6-10.8,9.4-10.8c3.3,0,5.3,1.3,6.5,2.8
		h0.9v-2.3H647.5z M644,74.6c0-4.1-2.1-7.7-6.7-7.7c-4.2,0-6.5,3.1-6.5,7.7c0,4.6,2.4,7.7,6.5,7.7C641.8,82.3,644,78.6,644,74.6z"/>
	<path class="st4" d="M672.7,74.8h-16.1c0.1,5,2.4,8.1,6.8,8.1c3,0,4.7-1.3,5.4-3.3h3.6c-0.7,3.6-3.7,6.4-9,6.4
		c-6.6,0-10.3-4.8-10.3-11.3s3.8-10.9,10.2-10.9c6.3,0,9.3,4.7,9.5,9.9V74.8z M656.8,71.9H669c-0.2-2.7-2.3-5-5.8-5
		C659.4,66.9,657.3,69.2,656.8,71.9z"/>
	<path class="st4" d="M688.5,64.3v3.1h-5.3V79c0,2.1,0.9,3.2,3.8,3.2h1.6v3.2h-1.6c-4.6,0-7.3-1.4-7.3-5.9V67.4h-3.7v-3.1h3.7v-6.4
		h3.6v6.4H688.5z"/>
</g>
<g>
	<path class="st4" d="M1146.7,68.7c4.5,1,7.5,3.3,7.5,8.4c0,4.7-3.7,8.9-11.3,8.9c-7,0-11.6-3.7-12.1-8.9h3.8
		c0.7,4.1,4.3,5.5,8.4,5.5c4.2,0,7.4-1.9,7.4-5.4c0-3.2-2.1-4.5-5.1-5.1c-1.5-0.3-4.5-0.9-5.9-1.2c-4.4-0.9-7.3-3.2-7.3-7.6
		c0-4.7,3.8-8.3,10.5-8.3c6.2,0,10.2,3.3,10.9,8.1h-3.8c-0.7-3-2.8-4.7-7.1-4.7c-3.6,0-6.6,1.6-6.6,4.8c0,2.9,2.6,3.8,5.1,4.4
		C1142.3,67.7,1145.1,68.3,1146.7,68.7z"/>
	<path class="st4" d="M1170.4,64.3v3.1h-5.3V79c0,2.1,0.9,3.2,3.8,3.2h1.6v3.2h-1.6c-4.6,0-7.3-1.4-7.3-5.9V67.4h-3.7v-3.1h3.7v-6.4
		h3.6v6.4H1170.4z"/>
	<path class="st4" d="M1189.8,83.2h-0.9c-1.3,1.6-3.6,2.8-6.6,2.8c-4.9,0-7.6-3.3-7.6-6.9c0-3.4,2.2-7,8.1-7h6.9v-0.8
		c0-2.6-1.5-4.4-5.2-4.4c-3.2,0-4.7,1.2-4.9,3.1h-3.6c0.3-3.9,3.7-6.2,8.4-6.2c5.3,0,8.7,2.6,8.7,7.3v14.4h-3.4V83.2z M1189.6,76.9
		V75h-6.3c-3.5,0-5.1,1.5-5.1,4c0,2.4,1.8,3.9,4.9,3.9C1186.6,82.9,1189.6,80.3,1189.6,76.9z"/>
	<path class="st4" d="M1209.9,64.3v3.1h-5.3V79c0,2.1,0.9,3.2,3.8,3.2h1.6v3.2h-1.6c-4.6,0-7.3-1.4-7.3-5.9V67.4h-3.7v-3.1h3.7v-6.4
		h3.6v6.4H1209.9z"/>
	<path class="st4" d="M1219,64.3V77c0,3.9,1.8,5.8,5.4,5.8c3.7,0,6.3-3.2,6.3-7.1V64.3h3.6v21.2h-3.4v-2.3h-0.9
		c-1.2,1.6-3.5,2.8-6.4,2.8c-5.2,0-8.1-3.2-8.1-8.3V64.3H1219z"/>
	<path class="st4" d="M1249.1,72.6l2.4,0.4c3.7,0.6,6,2.5,6,6.4c0,3.5-3,6.6-8.7,6.6c-6,0-8.9-2.6-9.4-6.7h3.6
		c0.3,2.4,2.4,3.6,5.6,3.6c3.2,0,5.3-1.1,5.3-3.4c0-1.8-1.2-2.9-3.9-3.3l-4.7-0.8c-3-0.5-5.1-2.1-5.1-5.3c0-3.5,2.6-6.3,8.4-6.3
		c5,0,7.9,2.4,8.4,6h-3.6c-0.3-2-2.3-2.9-5-2.9c-2.7,0-4.6,1-4.6,2.8c0,1.6,1,2.3,3.2,2.6L1249.1,72.6z"/>
	<path class="st4" d="M1299,76.9c-1.2,5.3-5.3,9.1-11.9,9.1c-8.9,0-13.9-6.6-13.9-15.5c0-8.9,5-15.5,13.9-15.5
		c6.1,0,10.3,3.2,11.5,8.4h-4c-1.1-3.2-3.4-5-7.5-5c-7,0-10.1,5.8-10.1,12.1c0,6.4,3.1,12.1,10,12.1c4.2,0,6.9-2.1,7.9-5.6H1299z"/>
	<path class="st4" d="M1324.1,74.9c0,6.3-3.8,11.1-10.4,11.1c-6.6,0-10.4-4.9-10.4-11.1s3.8-11.1,10.4-11.1
		C1320.3,63.7,1324.1,68.6,1324.1,74.9z M1320.5,74.9c0-4.2-2.2-8-6.8-8c-4.7,0-6.8,3.9-6.8,8s2.1,8,6.8,8
		C1318.4,82.9,1320.5,79,1320.5,74.9z"/>
	<path class="st4" d="M1348.6,54.9v30.5h-3.4v-2.3h-0.9c-1.2,1.5-3.2,2.8-6.6,2.8c-5.8,0-9.3-4.9-9.3-11.1c0-6.4,3.4-11.1,9.3-11.1
		c3.4,0,5.3,1.3,6.5,2.8h0.9V54.9H1348.6z M1345.1,74.9c0-4.2-1.9-8-6.6-8c-4.2,0-6.5,3.3-6.5,8c0,4.7,2.3,8,6.5,8
		C1343.2,82.9,1345.1,79,1345.1,74.9z"/>
	<path class="st4" d="M1373.9,74.8h-16.1c0.1,5,2.4,8.1,6.8,8.1c3,0,4.7-1.3,5.4-3.3h3.6c-0.7,3.6-3.7,6.4-9,6.4
		c-6.6,0-10.3-4.8-10.3-11.3s3.8-10.9,10.2-10.9c6.3,0,9.3,4.7,9.5,9.9V74.8z M1358,71.9h12.2c-0.2-2.7-2.3-5-5.8-5
		C1360.5,66.9,1358.4,69.2,1358,71.9z"/>
</g>
<g>
	<path class="st4" d="M69.2,664.3c2.5,1.2,4.2,3.9,4.2,6.9c0,4.8-3.3,8.4-10.2,8.4H49.8v-30h13.1c6.3,0,9.6,3.5,9.6,7.6
		c0,2.7-1.1,4.9-3.3,6.1V664.3z M53.6,662.4h9.2c3.3,0,5.8-1.1,5.8-4.8c0-3.4-2.9-4.6-5.9-4.6h-9.1V662.4z M63,676.3
		c3.4,0,6.6-1.2,6.6-5.4c0-3.9-3-5.2-6.6-5.2h-9.4v10.6H63z"/>
	<path class="st4" d="M91,661.8h-1.8c-4.2,0-6.8,2.6-6.8,7.2v10.6h-3.6v-21.2h3.4v2.5h0.9c1.1-1.3,3.1-2.5,6.1-2.5H91V661.8z"/>
	<path class="st4" d="M115.2,669.1c0,6.3-3.8,11.1-10.4,11.1c-6.6,0-10.4-4.9-10.4-11.1s3.8-11.1,10.4-11.1
		C111.4,657.9,115.2,662.8,115.2,669.1z M111.6,669.1c0-4.2-2.2-8-6.8-8c-4.7,0-6.8,3.9-6.8,8s2.1,8,6.8,8
		C109.4,677.1,111.6,673.2,111.6,669.1z"/>
	<path class="st4" d="M134.2,665.4l3.5,10.5h0.9l2.4-17.4h3.4l-3.1,21.2H136l-3.7-10.7h-0.9l-3.7,10.7h-5.5l-3-21.2h3.4l2.5,17.4
		h0.9l3.6-10.5H134.2z"/>
	<path class="st4" d="M157.7,666.8l2.4,0.4c3.7,0.6,6,2.5,6,6.4c0,3.5-3,6.6-8.7,6.6c-6,0-8.9-2.6-9.4-6.7h3.6
		c0.3,2.4,2.4,3.6,5.6,3.6s5.3-1.1,5.3-3.4c0-1.8-1.2-2.9-3.9-3.3l-4.7-0.8c-3-0.5-5.1-2.1-5.1-5.3c0-3.5,2.6-6.3,8.4-6.3
		c5,0,7.9,2.4,8.4,6H162c-0.3-2-2.3-2.9-5-2.9c-2.7,0-4.6,1-4.6,2.8c0,1.6,1,2.3,3.2,2.6L157.7,666.8z"/>
	<path class="st4" d="M189.7,669h-16.1c0.1,5,2.4,8.1,6.8,8.1c3,0,4.7-1.3,5.4-3.3h3.6c-0.7,3.6-3.7,6.4-9,6.4
		c-6.6,0-10.3-4.8-10.3-11.3s3.8-10.9,10.2-10.9c6.3,0,9.3,4.7,9.5,9.9V669z M173.8,666H186c-0.2-2.7-2.3-5-5.8-5
		C176.4,661,174.3,663.3,173.8,666z"/>
	<path class="st4" d="M207.4,661.8h-1.8c-4.2,0-6.8,2.6-6.8,7.2v10.6h-3.6v-21.2h3.4v2.5h0.9c1.1-1.3,3.1-2.5,6.1-2.5h1.6V661.8z"/>
	<path class="st4" d="M241.6,673.3c-0.8,4.2-4,6.9-8.9,6.9c-6.6,0-10.3-4.9-10.3-11.1c0-6.4,3.7-11.1,10.3-11.1c5,0,8.1,2.8,8.8,6.7
		h-3.6c-0.7-2.1-2.3-3.6-5.2-3.6c-4.8,0-6.7,3.7-6.7,7.9c0,4.2,2,8.1,6.7,8.1c3,0,4.8-1.5,5.3-3.8H241.6z"/>
	<path class="st4" d="M250.5,649.1v30.5h-3.6v-30.5H250.5z"/>
	<path class="st4" d="M257.4,653v-3.9h3.8v3.9H257.4z M261,679.6h-3.6v-21.2h3.6V679.6z"/>
	<path class="st4" d="M286.4,669h-16.1c0.1,5,2.4,8.1,6.8,8.1c3,0,4.7-1.3,5.4-3.3h3.6c-0.7,3.6-3.7,6.4-9,6.4
		c-6.6,0-10.3-4.8-10.3-11.3s3.8-10.9,10.2-10.9c6.3,0,9.3,4.7,9.5,9.9V669z M270.5,666h12.2c-0.2-2.7-2.3-5-5.8-5
		C273.1,661,271,663.3,270.5,666z"/>
	<path class="st4" d="M307.2,679.6V667c0-3.9-1.8-5.8-5.4-5.8c-3.8,0-6.3,3.3-6.3,7.1v11.5H292v-21.2h3.4v2.3h0.9
		c1.2-1.6,3.5-2.8,6.4-2.8c5.2,0,8.1,3.2,8.1,8.3v13.4H307.2z"/>
	<path class="st4" d="M327.6,658.5v3.1h-5.3v11.6c0,2.1,0.9,3.2,3.8,3.2h1.6v3.2h-1.6c-4.6,0-7.3-1.4-7.3-5.9v-12.1H315v-3.1h3.7
		v-6.4h3.6v6.4H327.6z"/>
</g>
<g>
	<path class="st4" d="M813.9,657.6v30h-3.8v-30H813.9z"/>
	<path class="st4" d="M836.6,687.6V675c0-3.9-1.8-5.8-5.4-5.8c-3.8,0-6.3,3.3-6.3,7.1v11.5h-3.6v-21.2h3.4v2.3h0.9
		c1.2-1.6,3.5-2.8,6.4-2.8c5.2,0,8.1,3.2,8.1,8.3v13.4H836.6z"/>
	<path class="st4" d="M857,666.5v3.1h-5.3v11.6c0,2.1,0.9,3.2,3.8,3.2h1.6v3.2h-1.6c-4.6,0-7.3-1.4-7.3-5.9v-12.1h-3.7v-3.1h3.7
		v-6.4h3.6v6.4H857z"/>
	<path class="st4" d="M880.9,677h-16.1c0.1,5,2.4,8.1,6.8,8.1c3,0,4.7-1.3,5.4-3.3h3.6c-0.7,3.6-3.7,6.4-9,6.4
		c-6.6,0-10.3-4.8-10.3-11.3s3.8-10.9,10.2-10.9c6.3,0,9.3,4.7,9.5,9.9V677z M865,674h12.2c-0.2-2.7-2.3-5-5.8-5
		C867.5,669,865.4,671.3,865,674z"/>
	<path class="st4" d="M898.5,669.8h-1.8c-4.2,0-6.8,2.6-6.8,7.2v10.6h-3.6v-21.2h3.4v2.5h0.9c1-1.3,3.1-2.5,6.1-2.5h1.6V669.8z"/>
	<path class="st4" d="M918.4,687.6V675c0-3.9-1.8-5.8-5.4-5.8c-3.8,0-6.3,3.3-6.3,7.1v11.5h-3.6v-21.2h3.4v2.3h0.9
		c1.2-1.6,3.5-2.8,6.4-2.8c5.2,0,8.1,3.2,8.1,8.3v13.4H918.4z"/>
	<path class="st4" d="M946.9,677h-16.1c0.1,5,2.4,8.1,6.8,8.1c3,0,4.7-1.3,5.4-3.3h3.6c-0.7,3.6-3.7,6.4-9,6.4
		c-6.6,0-10.3-4.8-10.3-11.3s3.8-10.9,10.2-10.9c6.3,0,9.3,4.7,9.5,9.9V677z M931,674h12.2c-0.2-2.7-2.3-5-5.8-5
		C933.6,669,931.5,671.3,931,674z"/>
	<path class="st4" d="M962.7,666.5v3.1h-5.3v11.6c0,2.1,0.9,3.2,3.8,3.2h1.6v3.2h-1.6c-4.6,0-7.3-1.4-7.3-5.9v-12.1h-3.7v-3.1h3.7
		v-6.4h3.6v6.4H962.7z"/>
</g>
<g>
	<path class="st4" d="M1462.9,670.8c4.5,1,7.5,3.3,7.5,8.4c0,4.7-3.7,8.9-11.3,8.9c-7,0-11.6-3.7-12.1-8.9h3.8
		c0.7,4.1,4.3,5.5,8.4,5.5c4.2,0,7.4-1.9,7.4-5.4c0-3.2-2.1-4.5-5.1-5.1c-1.5-0.3-4.5-0.9-5.9-1.2c-4.4-0.9-7.3-3.2-7.3-7.6
		c0-4.7,3.8-8.3,10.5-8.3c6.2,0,10.2,3.3,10.9,8.1h-3.8c-0.7-3-2.8-4.7-7.1-4.7c-3.6,0-6.6,1.6-6.6,4.8c0,2.9,2.6,3.8,5.1,4.4
		C1458.5,669.9,1461.3,670.5,1462.9,670.8z"/>
	<path class="st4" d="M1494.7,677h-16.1c0.1,5,2.4,8.1,6.8,8.1c3,0,4.7-1.3,5.4-3.3h3.6c-0.7,3.6-3.7,6.4-9,6.4
		c-6.6,0-10.3-4.8-10.3-11.3s3.8-10.9,10.2-10.9c6.3,0,9.3,4.7,9.5,9.9V677z M1478.8,674h12.2c-0.2-2.7-2.3-5-5.8-5
		C1481.3,669,1479.2,671.3,1478.8,674z"/>
	<path class="st4" d="M1512.3,669.8h-1.8c-4.2,0-6.8,2.6-6.8,7.2v10.6h-3.6v-21.2h3.4v2.5h0.9c1-1.3,3.1-2.5,6.1-2.5h1.6V669.8z"/>
	<path class="st4" d="M1516.1,666.5h3.7l5.9,17.8h1.7l5.7-17.8h3.7l-7.1,21.2h-6.7L1516.1,666.5z"/>
	<path class="st4" d="M1559.2,677h-16.1c0.1,5,2.4,8.1,6.8,8.1c3,0,4.7-1.3,5.4-3.3h3.6c-0.7,3.6-3.7,6.4-9,6.4
		c-6.6,0-10.3-4.8-10.3-11.3s3.8-10.9,10.2-10.9c6.3,0,9.3,4.7,9.5,9.9V677z M1543.3,674h12.2c-0.2-2.7-2.3-5-5.8-5
		C1545.9,669,1543.8,671.3,1543.3,674z"/>
	<path class="st4" d="M1576.9,669.8h-1.8c-4.2,0-6.8,2.6-6.8,7.2v10.6h-3.6v-21.2h3.4v2.5h0.9c1.1-1.3,3.1-2.5,6.1-2.5h1.6V669.8z"
		/>
</g>
<path class="st1" d="M1001.9,503.1c-5.6,0-10.8,1.3-15.5,3.5c-1.8-30-26.8-53.8-57.3-53.8c-7.3,0-14.4,1.4-20.8,3.9
	c-9.5-24.1-33-41.2-60.5-41.2c-35.1,0-63.8,27.9-65,62.7c0,0,0,0-0.1,0c-26.8,0-48.5,21.7-48.5,48.5c0,26.8,21.7,48.5,48.5,48.5
	h219.2c19.9,0,36.1-16.2,36.1-36.1C1038,519.2,1021.8,503.1,1001.9,503.1z M879.6,539.2h-3.4c0.9-0.4,1.8-0.9,2.7-1.4
	C879.1,538.3,879.4,538.7,879.6,539.2z"/>
<line class="st0" x1="526.1" y1="120.4" x2="526.1" y2="18.4"/>
</svg>
