<?xml version="1.0" encoding="utf-8"?>
<!-- Generator: Adobe Illustrator 20.1.0, SVG Export Plug-In . SVG Version: 6.00 Build 0)  -->
<svg version="1.1" id="Layer_1" xmlns="http://www.w3.org/2000/svg" xmlns:xlink="http://www.w3.org/1999/xlink" x="0px" y="0px"
	 viewBox="0 0 1600 1728" style="enable-background:new 0 0 1600 1728;" xml:space="preserve">
<style type="text/css">
	.st0{fill:none;stroke:#007BFF;stroke-width:2;stroke-miterlimit:10;}
	.st1{opacity:0.12;fill:#007BFF;enable-background:new    ;}
	.st2{fill:none;stroke:#082E51;stroke-width:4;stroke-linecap:round;stroke-linejoin:round;stroke-miterlimit:10;}
	.st3{fill:none;stroke:#007BFF;stroke-width:4;stroke-linecap:round;stroke-miterlimit:10;}
	.st4{font-family:'Formular';}
	.st5{font-size:82.0584px;}
	.st6{fill:#007BFF;}
</style>
<g>
	<path class="st0" d="M655.7,395.6V259.5c0-14,11.5-25.5,25.5-25.5h231.5c14,0,25.5,11.5,25.5,25.5v136.1"/>
	<path class="st1" d="M906.2,409.2H687.6c-8.2,0-14.9-6.7-14.9-14.9V265.9c0-8.2,6.7-14.9,14.9-14.9h218.6c8.2,0,14.9,6.7,14.9,14.9
		v128.4C921.2,402.5,914.4,409.2,906.2,409.2z"/>
	<path class="st0" d="M931.4,439.5h-268c-4,0-7.2-3.3-7.2-7.2l0,0c0-4,3.3-7.2,7.2-7.2h268c4,0,7.2,3.3,7.2,7.2l0,0
		C938.6,436.2,935.3,439.5,931.4,439.5z"/>
</g>
<g>
	<path class="st0" d="M77.9,903.7V767.6c0-14,11.5-25.5,25.5-25.5h231.5c14,0,25.5,11.5,25.5,25.5v136.1"/>
	<path class="st1" d="M328.5,917.3H109.9c-8.2,0-14.9-6.7-14.9-14.9V774c0-8.2,6.7-14.9,14.9-14.9h218.6c8.2,0,14.9,6.7,14.9,14.9
		v128.4C343.5,910.6,336.7,917.3,328.5,917.3z"/>
	<path class="st0" d="M262.6,1007.6h-86.9c-4,0-7.2-3.2-7.2-7.2l0,0c0-4,3.2-7.2,7.2-7.2h86.9c4,0,7.2,3.2,7.2,7.2l0,0
		C269.8,1004.4,266.6,1007.6,262.6,1007.6z"/>
	<line class="st0" x1="219.2" y1="985.5" x2="219.2" y2="926.3"/>
</g>
<g>
	<g>
		<path class="st2" d="M1059.2,301.6l-11.2-12c-2.3-2.5-2.2-6.3,0.3-8.6l12-11.2"/>
		<path class="st2" d="M1052.5,285.4c0,0,212.5-29.4,260.5,130.6"/>
	</g>
</g>
<g>
	<path class="st3" d="M603.2,754.4l-14.5-7.7c-3-1.6-4.1-5.2-2.5-8.2L594,724"/>
	<path class="st3" d="M591.7,741.2c0,0,236.9-84.7,460.8,39.7"/>
</g>
<g>
	<path class="st3" d="M1028.6,874.8l14.5,7.7c3,1.6,4.1,5.2,2.5,8.2l-7.7,14.5"/>
	<path class="st3" d="M1040.1,888c0,0-236.9,84.7-460.8-39.7"/>
</g>
<g>
	<path class="st2" d="M1218.6,427.2l7.7,14.5c1.6,3,0.5,6.6-2.5,8.2l-14.5,7.7"/>
	<path class="st2" d="M1220.8,444.5c0,0-118.5-14.8-180.7-91.7"/>
</g>
<g>
	<path class="st2" d="M825.3,1349.8l-16.4,0.8c-3.4,0.2-6.2-2.4-6.4-5.8l-0.8-16.4"/>
	<path class="st2" d="M808.7,1344.4c0,0,114.9-181.2,268-114.4"/>
</g>
<g>
	<path class="st2" d="M1024.2,1309.3l16,3.5c3.3,0.7,5.4,3.9,4.7,7.2l-3.5,16"/>
	<path class="st2" d="M1038.9,1318.8c0,0-87.9,80.8-186.7,78.6"/>
</g>
<text transform="matrix(1 0 0 1 689.9028 113.7021)" class="st4 st5">client</text>
<text transform="matrix(1 0 0 1 111.9594 1099.7021)" class="st4 st5">client</text>
<text transform="matrix(1 0 0 1 399.0127 1661.7021)" class="st4 st5">client</text>
<text transform="matrix(1 0 0 1 620.1158 656.5029)" class="st6 st4 st5">response</text>
<text transform="matrix(1 0 0 1 649.9845 1030.5029)" class="st6 st4 st5">request</text>
<text transform="matrix(1 0 0 1 1253.333 1284.5029)" class="st4 st5">server</text>
<path class="st1" d="M1469.5,1137.8h-184.6c-10.3,0-18.7-8.4-18.7-18.7V577.5c0-10.3,8.4-18.7,18.7-18.7h184.6
	c10.3,0,18.7,8.4,18.7,18.7v541.6C1488.2,1129.4,1479.8,1137.8,1469.5,1137.8z"/>
<path class="st0" d="M1484.4,1158.6H1270c-11.5,0-20.8-9.3-20.8-20.8V558.9c0-11.5,9.3-20.8,20.8-20.8h214.5
	c11.5,0,20.8,9.3,20.8,20.8v578.9C1505.3,1149.2,1495.9,1158.6,1484.4,1158.6z"/>
<path class="st0" d="M1511.2,1185.4h-268c-4,0-7.2-3.3-7.2-7.2l0,0c0-4,3.3-7.2,7.2-7.2h268c4,0,7.2,3.3,7.2,7.2l0,0
	C1518.4,1182.1,1515.1,1185.4,1511.2,1185.4z"/>
<g>
	<path class="st1" d="M607,1532H413.1c-7.8,0-14-6.3-14-14v-297.7c0-7.8,6.3-14,14-14H607c7.8,0,14,6.3,14,14v297.7
		C621,1525.7,614.7,1532,607,1532z"/>
	<path class="st0" d="M613.8,1561.4H406.2c-4,0-7.2-3.2-7.2-7.2l0,0c0-4,3.2-7.2,7.2-7.2h207.6c4,0,7.2,3.2,7.2,7.2l0,0
		C621,1558.2,617.8,1561.4,613.8,1561.4z"/>
</g>
</svg>
