<?xml version="1.0" encoding="utf-8"?>
<!-- Generator: Adobe Illustrator 20.1.0, SVG Export Plug-In . SVG Version: 6.00 Build 0)  -->
<svg version="1.1" id="Layer_1" xmlns="http://www.w3.org/2000/svg" xmlns:xlink="http://www.w3.org/1999/xlink" x="0px" y="0px"
	 viewBox="0 0 1600 1747.9" style="enable-background:new 0 0 1600 1747.9;" xml:space="preserve">
<style type="text/css">
	.st0{fill:none;stroke:#007BFF;stroke-width:0.9091;stroke-miterlimit:10;}
	.st1{fill:none;stroke:#007BFF;stroke-width:0.8948;stroke-miterlimit:10;}
	.st2{fill:#007BFF;}
	.st3{fill:none;stroke:#007BFF;stroke-width:0.9443;stroke-miterlimit:10;}
	.st4{fill:none;stroke:#007BFF;stroke-miterlimit:10;}
	.st5{fill:#082E51;}
	.st6{fill:none;stroke:#007BFF;stroke-width:3.8898;stroke-linecap:round;stroke-miterlimit:10;}
	.st7{fill:none;stroke:#007BFF;stroke-width:3.8898;stroke-linecap:round;stroke-miterlimit:10;stroke-dasharray:11.4225;}
</style>
<rect x="47.7" y="100" class="st0" width="1509.3" height="524"/>
<rect x="47.7" y="1018.4" class="st1" width="1509.3" height="507.6"/>
<path class="st2" d="M1717.2-109.8"/>
<path class="st3" d="M1717.2-109.8"/>
<path class="st4" d="M493.3,1333.2H164.2c-17,0-30.7-13.7-30.7-30.7V1209c0-17,13.7-30.7,30.7-30.7h329.2c17,0,30.7,13.7,30.7,30.7
	v93.6C524,1319.5,510.3,1333.2,493.3,1333.2z"/>
<path pointer-events="none" class="st4" d="M182.3,486.7V251.6c0-32.4,65.8-58.8,146.9-58.8s146.9,26.3,146.9,58.8v235.1
	c0,32.4-65.8,58.8-146.9,58.8S182.3,519.1,182.3,486.7z"/>
<path pointer-events="none" class="st4" d="M182.3,251.6c0,32.4,65.8,58.8,146.9,58.8s146.9-26.3,146.9-58.8"/>
<path pointer-events="none" class="st4" d="M983.2,486.7V251.6c0-32.4,65.8-58.8,146.9-58.8c81.2,0,146.9,26.3,146.9,58.8v235.1
	c0,32.4-65.8,58.8-146.9,58.8C1049,545.4,983.2,519.1,983.2,486.7z"/>
<path pointer-events="none" class="st4" d="M983.2,251.6c0,32.4,65.8,58.8,146.9,58.8c81.2,0,146.9-26.3,146.9-58.8"/>
<path pointer-events="none" class="st4" d="M959.9,1382.4v-235.1c0-32.4,65.8-58.8,146.9-58.8s146.9,26.3,146.9,58.8v235.1
	c0,32.4-65.8,58.8-146.9,58.8S959.9,1414.8,959.9,1382.4z"/>
<path pointer-events="none" class="st4" d="M959.9,1147.3c0,32.4,65.8,58.8,146.9,58.8s146.9-26.3,146.9-58.8"/>
<g>
	<path class="st5" d="M1082.9,409.7c0,8-5,13.8-13.2,13.8s-13.2-5.8-13.2-13.8s5-13.8,13.2-13.8C1078,396,1082.9,401.7,1082.9,409.7
		z M1077.1,409.7c0-4.6-2.3-8.8-7.4-8.8s-7.4,4.2-7.4,8.8c0,4.7,2.3,8.9,7.4,8.9C1074.8,418.6,1077.1,414.4,1077.1,409.7z"/>
	<path class="st5" d="M1105.8,402.1h-2.4c-5.4,0-8.2,3-8.2,8.6V423h-5.8v-26.2h5.6v3h1.2c1.1-1.4,3.2-3,7.3-3h2.2v5.3L1105.8,402.1
		L1105.8,402.1z"/>
	<path class="st5" d="M1111.3,391v-5.6h6v5.6H1111.3z M1117.2,422.9h-5.8v-26.2h5.8V422.9z"/>
	<path class="st5" d="M1149.7,396.6v24.9c0,7.4-5,12.1-12.7,12.1c-7,0-11.6-2.9-12.3-8.5h5.8c0.6,2.6,2.8,3.7,6.4,3.7
		c4.9,0,7-3.1,7-7.7v-1.8h-1.2c-1.2,1.8-3.6,3.2-7.3,3.2c-7.2,0-11.5-5.7-11.5-13.3c0-7.7,4.5-13.3,11.5-13.3c3.9,0,6.3,1.5,7.5,3.2
		h1.2v-2.5L1149.7,396.6L1149.7,396.6z M1144.1,409.3c0-4.5-2.4-8.4-7.3-8.4c-4.5,0-7.2,3.5-7.2,8.4s2.6,8.3,7.2,8.3
		C1141.7,417.7,1144.1,413.8,1144.1,409.3z"/>
	<path class="st5" d="M1157.7,391v-5.6h6v5.6H1157.7z M1163.6,422.9h-5.8v-26.2h5.8V422.9z"/>
	<path class="st5" d="M1190.2,422.9v-15.3c0-4.3-2-6.4-5.8-6.4c-4.2,0-6.8,3.6-6.8,7.7v14h-5.8v-26.2h5.6v2.5h1.2
		c1.5-2,4.1-3.2,7.6-3.2c6.5,0,9.8,4,9.8,10.5v16.4H1190.2z"/>
</g>
<g>
	<path class="st5" d="M1330.1,321.3c-0.8,5.4-5.2,9.1-11.5,9.1c-8.1,0-13-5.8-13-13.8s4.8-13.8,13-13.8c6.4,0,10.6,3.5,11.3,8.7
		h-5.8c-0.8-2.3-2.4-3.7-5.5-3.7c-5.2,0-7.2,4.1-7.2,8.8c0,4.8,2.1,8.9,7.2,8.9c3.3,0,5.2-1.5,5.7-4.1h5.8V321.3z"/>
	<path class="st5" d="M1342.2,292.3v37.5h-5.8v-37.5H1342.2z"/>
	<path class="st5" d="M1375.2,316.6c0,8-5,13.8-13.2,13.8s-13.2-5.8-13.2-13.8s5-13.8,13.2-13.8
		C1370.2,302.8,1375.2,308.6,1375.2,316.6z M1369.3,316.6c0-4.6-2.3-8.8-7.4-8.8s-7.4,4.2-7.4,8.8c0,4.7,2.3,8.9,7.4,8.9
		S1369.3,321.3,1369.3,316.6z"/>
	<path class="st5" d="M1400.1,329.7v-15.3c0-4.3-2-6.4-5.8-6.4c-4.2,0-6.8,3.6-6.8,7.7v14h-5.8v-26.2h5.6v2.5h1.2
		c1.5-2,4.1-3.2,7.6-3.2c6.5,0,9.8,4,9.8,10.5v16.4H1400.1z"/>
	<path class="st5" d="M1437.2,317.1h-19.4c0.2,5.4,2.6,8.3,7.4,8.3c3.1,0,4.9-1.2,5.7-3.3h5.9c-1,4.9-4.9,8.3-11.7,8.3
		c-8.2,0-13.1-5.8-13.1-14s4.9-13.6,12.9-13.6c7.9,0,12.1,5.5,12.2,12.3L1437.2,317.1L1437.2,317.1z M1418.1,312.8h13.1
		c-0.4-2.9-2.4-5.3-6.3-5.3C1420.8,307.5,1418.8,309.7,1418.1,312.8z"/>
</g>
<g>
	<path class="st5" d="M683.3,207.8v21.3h-5.8v-21.3h-4.2v-4.9h4.2v-2.4c0-6.2,3.8-8.8,9.7-8.8h2.9v4.9h-2.9c-2.9,0-4,1.9-4,4.1v2.2
		h6.9v4.9H683.3z"/>
	<path class="st5" d="M720.3,215.9c0,8-5,13.8-13.2,13.8s-13.2-5.8-13.2-13.8s5-13.8,13.2-13.8C715.3,202.2,720.3,207.9,720.3,215.9
		z M714.5,215.9c0-4.6-2.3-8.8-7.4-8.8s-7.4,4.2-7.4,8.8c0,4.7,2.3,8.9,7.4,8.9S714.5,220.6,714.5,215.9z"/>
	<path class="st5" d="M743.2,208.2h-2.4c-5.4,0-8.2,3-8.2,8.6v12.3h-5.8v-26.2h5.6v3h1.2c1.1-1.4,3.2-3,7.3-3h2.2v5.3L743.2,208.2
		L743.2,208.2z"/>
	<path class="st5" d="M767.5,229.1l-6.8-13.2h-1.2l-5.1,5.6v7.6h-5.8v-37.5h5.8v22.8l11-11.6h6.6l-7.6,8.1l9.1,18.1L767.5,229.1
		L767.5,229.1z"/>
</g>
<g>
	<path class="st5" d="M582.6,429v2.5h1.2c1.4-1.8,3.8-3.2,7.7-3.2c7.1,0,11.3,5.9,11.3,13.8c0,8-4.3,13.8-11.3,13.8
		c-3.9,0-6.1-1.3-7.5-3.2h-1.2v12.8H577V429H582.6z M582.6,442c0,4.7,2.2,8.9,7.3,8.9c4.8,0,7.2-3.8,7.2-8.9s-2.4-8.8-7.2-8.8
		C584.8,433.2,582.6,437.5,582.6,442z"/>
	<path class="st5" d="M614.9,429v15.3c0,4.3,2,6.4,5.8,6.4c4.2,0,6.8-3.6,6.8-7.7v-14h5.8v26.2h-5.6v-2.5h-1.2
		c-1.5,2-4.1,3.2-7.6,3.2c-6.5,0-9.8-4-9.8-10.5V429H614.9z"/>
	<path class="st5" d="M647.2,417.7v37.5h-5.8v-37.5H647.2z"/>
	<path class="st5" d="M661,417.7v37.5h-5.8v-37.5H661z"/>
	<path class="st5" d="M699.8,434.4h-2.4c-5.4,0-8.2,3-8.2,8.6v12.3h-5.8V429h5.6v3h1.2c1.1-1.4,3.2-3,7.3-3h2.2v5.4H699.8z"/>
	<path class="st5" d="M728.9,442.6h-19.4c0.2,5.4,2.6,8.3,7.4,8.3c3.1,0,4.9-1.2,5.7-3.3h5.9c-1,4.9-4.9,8.3-11.7,8.3
		c-8.2,0-13.1-5.8-13.1-14s4.9-13.6,12.9-13.6c7.9,0,12.1,5.5,12.2,12.3L728.9,442.6L728.9,442.6z M709.7,438.2h13.1
		c-0.4-2.9-2.4-5.3-6.3-5.3C712.5,432.9,710.4,435.2,709.7,438.2z"/>
	<path class="st5" d="M759.7,429v36.5h-5.8v-12.8h-1.2c-1.4,1.9-3.7,3.2-7.5,3.2c-7.1,0-11.3-5.8-11.3-13.8
		c0-7.8,4.2-13.8,11.3-13.8c3.9,0,6.3,1.4,7.7,3.2h1.2V429H759.7z M739.6,442c0,5.1,2.4,8.9,7.2,8.9c5.1,0,7.3-4.2,7.3-8.9
		c0-4.6-2.2-8.8-7.3-8.8C742,433.2,739.6,437,739.6,442z"/>
	<path class="st5" d="M773.2,429v15.3c0,4.3,2,6.4,5.8,6.4c4.2,0,6.8-3.6,6.8-7.7v-14h5.8v26.2H786v-2.5h-1.2
		c-1.5,2-4.1,3.2-7.6,3.2c-6.5,0-9.8-4-9.8-10.5V429H773.2z"/>
	<path class="st5" d="M823.3,442.6h-19.4c0.2,5.4,2.6,8.3,7.4,8.3c3.1,0,4.9-1.2,5.7-3.3h5.9c-1,4.9-4.9,8.3-11.7,8.3
		c-8.2,0-13.1-5.8-13.1-14s4.9-13.6,12.9-13.6c7.9,0,12.1,5.5,12.2,12.3L823.3,442.6L823.3,442.6z M804.2,438.2h13.1
		c-0.4-2.9-2.4-5.3-6.3-5.3C806.9,432.9,804.8,435.2,804.2,438.2z"/>
	<path class="st5" d="M844.4,436c-0.4-2.2-2.5-2.8-5.2-2.8c-2.8,0-4.7,0.8-4.7,2.7c0,1.7,1.1,2.3,3.4,2.6l5.1,0.8
		c4.8,0.8,8,3.2,8,8.1c0,4.4-3.8,8.4-11.2,8.4c-7.7,0-11.4-3.4-12-8.6h5.8c0.5,2.7,2.6,3.8,6.1,3.8c3.3,0,5.5-1,5.5-3.4
		c0-2-1.2-2.9-4.3-3.5l-5.5-0.9c-3.9-0.7-6.7-2.8-6.7-6.9c0-4.4,3.4-8,10.8-8c6.4,0,10.2,3.1,10.8,7.7L844.4,436L844.4,436z"/>
	<path class="st5" d="M870.5,429v4.9h-6.2v12.8c0,2.2,1.1,3.5,4,3.5h2.2v5.1h-2.3c-5.8,0-9.7-1.8-9.7-7.7V434h-4.2v-5h4.2v-7.6h5.8
		v7.6H870.5z"/>
</g>
<g>
	<path class="st5" d="M217.5,392.6v15.3c0,4.3,2,6.4,5.8,6.4c4.2,0,6.8-3.6,6.8-7.7v-14h5.8v26.2h-5.6v-2.5h-1.2
		c-1.5,2-4.1,3.2-7.6,3.2c-6.5,0-9.8-4-9.8-10.5v-16.4H217.5z"/>
	<path class="st5" d="M249.6,392.6v2.5h1.2c1.4-1.8,3.8-3.2,7.7-3.2c7.1,0,11.3,5.9,11.3,13.8c0,8-4.3,13.8-11.3,13.8
		c-3.9,0-6.1-1.3-7.5-3.2h-1.2v12.8H244v-36.5L249.6,392.6L249.6,392.6z M249.7,405.7c0,4.7,2.2,8.9,7.3,8.9c4.8,0,7.2-3.8,7.2-8.9
		s-2.4-8.8-7.2-8.8C251.8,396.9,249.7,401.1,249.7,405.7z"/>
	<path class="st5" d="M291.1,399.7c-0.4-2.2-2.5-2.8-5.2-2.8c-2.8,0-4.7,0.8-4.7,2.7c0,1.7,1.1,2.3,3.4,2.6l5.1,0.8
		c4.8,0.8,8,3.2,8,8.1c0,4.4-3.8,8.4-11.2,8.4c-7.7,0-11.4-3.4-12-8.6h5.8c0.5,2.7,2.6,3.8,6.1,3.8c3.3,0,5.5-1,5.5-3.4
		c0-2-1.2-2.9-4.3-3.5l-5.5-0.9c-3.9-0.7-6.7-2.8-6.7-6.9c0-4.4,3.4-8,10.8-8c6.4,0,10.2,3.1,10.8,7.7L291.1,399.7L291.1,399.7z"/>
	<path class="st5" d="M317.2,392.6v4.9H311v12.8c0,2.2,1.1,3.5,4,3.5h2.2v5.1H315c-5.8,0-9.7-1.8-9.7-7.7v-13.6H301v-4.9h4.2V385
		h5.8v7.6H317.2z"/>
	<path class="st5" d="M340.5,398.1h-2.4c-5.4,0-8.2,3-8.2,8.6V419h-5.8v-26.2h5.6v3h1.2c1.1-1.4,3.2-3,7.3-3h2.2L340.5,398.1
		L340.5,398.1z"/>
	<path class="st5" d="M369.6,406.3h-19.4c0.2,5.4,2.6,8.3,7.4,8.3c3.1,0,4.9-1.2,5.7-3.3h5.9c-1,4.9-4.9,8.3-11.7,8.3
		c-8.2,0-13.1-5.8-13.1-14s4.9-13.6,12.9-13.6c7.9,0,12.1,5.5,12.2,12.3v2L369.6,406.3L369.6,406.3z M350.5,401.9h13.1
		c-0.4-2.9-2.4-5.3-6.3-5.3C353.2,396.6,351.1,398.9,350.5,401.9z"/>
	<path class="st5" d="M392.4,416.5h-1.2c-1.6,2-4.1,3.1-7.7,3.1c-6,0-9.4-4.1-9.4-8.6c0-4.1,2.8-8.8,10.4-8.8h7.7v-0.8
		c0-2.9-1.6-4.8-5.5-4.8c-3.4,0-5.1,1.3-5.3,3.3h-5.8c0.3-4.9,4.6-7.9,10.8-7.9c6.8,0,11.3,3,11.3,9.5v17.4h-5.4v-2.4L392.4,416.5
		L392.4,416.5z M392.2,408.3v-2h-6.7c-3.7,0-5.6,1.6-5.6,4.3c0,2.7,2,4.2,5.3,4.2C389.2,414.8,392.2,411.9,392.2,408.3z"/>
	<path class="st5" d="M443.1,402.1v16.7h-5.8V403c0-3.9-1.3-5.9-4.5-5.9c-3.7,0-5.6,2.8-5.6,6.8v14.9h-5.8v-15.7c0-3.9-1.4-6-4.5-6
		c-3.9,0-5.6,3.3-5.6,7.4v14.3h-5.8v-26.2h5.6v2.4h1.2c1.3-2,3.3-3,6.6-3c3.1,0,5.4,1.1,6.8,3.2h1.2c1.6-2.1,4-3.2,7.3-3.2
		C440.4,392,443.1,395.9,443.1,402.1z"/>
</g>
<g>
	<path class="st2" d="M169.7,677.6v4c0,8.5-4.4,16.6-15.8,16.6c-11.3,0-17.4-8.1-17.4-19.1c0-10.9,6.1-19.1,17.5-19.1
		c8.1,0,13.3,4.2,14.7,10.7h-6.4c-1-3.2-3.6-5.1-8.2-5.1c-7.6,0-11.2,6-11.2,13.5c0,7.4,3.5,13.5,11.2,13.5c6.4,0,9.4-3.9,9.5-9.8
		h-10v-5.3L169.7,677.6L169.7,677.6z"/>
	<path class="st2" d="M176.6,665.8v-5.6h6v5.6H176.6z M182.5,697.6h-5.8v-26.2h5.8V697.6z"/>
	<path class="st2" d="M204.1,671.4v4.9h-6.2v12.8c0,2.2,1.1,3.5,4,3.5h2.2v5.1h-2.3c-5.8,0-9.7-1.8-9.7-7.7v-13.6h-4.2v-4.9h4.2
		v-7.6h5.8v7.6L204.1,671.4L204.1,671.4z"/>
	<path class="st2" d="M242.2,660.8v36.8H236v-16.1h-18.4v16.1h-6.2v-36.8h6.2v14.9H236v-14.9H242.2z"/>
	<path class="st2" d="M256.1,671.4v15.3c0,4.3,2,6.4,5.8,6.4c4.2,0,6.8-3.6,6.8-7.7v-14h5.8v26.2h-5.6v-2.5h-1.2
		c-1.5,2-4.1,3.2-7.6,3.2c-6.5,0-9.8-4-9.8-10.5v-16.4H256.1z"/>
	<path class="st2" d="M308.5,684.5c0,7.8-4.2,13.8-11.3,13.8c-3.9,0-6.3-1.4-7.7-3.2h-1.2v2.5h-5.6v-37.5h5.8v13.8h1.2
		c1.4-1.9,3.7-3.2,7.5-3.2C304.3,670.7,308.5,676.6,308.5,684.5z M302.7,684.5c0-5.1-2.4-8.8-7.2-8.8c-5.1,0-7.3,4.2-7.3,8.8
		c0,4.7,2.2,8.9,7.3,8.9C300.3,693.3,302.7,689.6,302.7,684.5z"/>
</g>
<g>
	<path class="st5" d="M907.1,796.4v2.5h1.2c1.4-1.8,3.8-3.2,7.7-3.2c7.1,0,11.3,5.9,11.3,13.8c0,8-4.3,13.8-11.3,13.8
		c-3.9,0-6.1-1.3-7.5-3.2h-1.2v12.8h-5.8v-36.5L907.1,796.4L907.1,796.4z M907.2,809.5c0,4.7,2.2,8.9,7.3,8.9c4.8,0,7.2-3.8,7.2-8.9
		c0-5.1-2.4-8.8-7.2-8.8C909.4,800.6,907.2,804.9,907.2,809.5z"/>
	<path class="st5" d="M939.4,796.4v15.3c0,4.3,2,6.4,5.8,6.4c4.2,0,6.8-3.6,6.8-7.7v-14h5.8v26.2h-5.6v-2.5H951
		c-1.5,2-4.1,3.2-7.6,3.2c-6.5,0-9.8-4-9.8-10.5v-16.4H939.4z"/>
	<path class="st5" d="M971.7,785.1v37.5h-5.8v-37.5H971.7z"/>
	<path class="st5" d="M985.6,785.1v37.5h-5.8v-37.5H985.6z"/>
</g>
<g>
	<path class="st5" d="M1222.2,796.4v2.5h1.2c1.4-1.8,3.8-3.2,7.7-3.2c7.1,0,11.3,5.9,11.3,13.8c0,8-4.3,13.8-11.3,13.8
		c-3.9,0-6.1-1.3-7.5-3.2h-1.2v12.8h-5.8v-36.5L1222.2,796.4L1222.2,796.4z M1222.3,809.5c0,4.7,2.2,8.9,7.3,8.9
		c4.8,0,7.2-3.8,7.2-8.9c0-5.1-2.4-8.8-7.2-8.8C1224.5,800.6,1222.3,804.9,1222.3,809.5z"/>
	<path class="st5" d="M1254.5,796.4v15.3c0,4.3,2,6.4,5.8,6.4c4.2,0,6.8-3.6,6.8-7.7v-14h5.8v26.2h-5.6v-2.5h-1.2
		c-1.5,2-4.1,3.2-7.6,3.2c-6.5,0-9.8-4-9.8-10.5v-16.4H1254.5z"/>
	<path class="st5" d="M1295.7,803.4c-0.4-2.2-2.5-2.8-5.2-2.8c-2.8,0-4.7,0.8-4.7,2.7c0,1.7,1.1,2.3,3.4,2.6l5.1,0.8
		c4.8,0.8,8,3.2,8,8.1c0,4.4-3.8,8.4-11.2,8.4c-7.7,0-11.4-3.4-12-8.6h5.8c0.5,2.7,2.6,3.8,6.1,3.8c3.3,0,5.5-1,5.5-3.4
		c0-2-1.2-2.9-4.3-3.5l-5.5-0.9c-3.9-0.7-6.7-2.8-6.7-6.9c0-4.4,3.4-8,10.8-8c6.4,0,10.2,3.1,10.8,7.7L1295.7,803.4L1295.7,803.4z"
		/>
	<path class="st5" d="M1326.8,822.6v-15.3c0-4.1-1.9-6.4-5.8-6.4c-4.2,0-6.8,3.6-6.8,7.7v14h-5.8v-37.5h5.8v13.8h1.2
		c1.4-2,4-3.2,7.5-3.2c6.4,0,9.7,4,9.7,10.5v16.4H1326.8z"/>
</g>
<g>
	<path class="st5" d="M635,1168.3c-0.8,5.4-5.2,9.1-11.5,9.1c-8.1,0-13-5.8-13-13.8s4.8-13.8,13-13.8c6.4,0,10.6,3.5,11.3,8.7H629
		c-0.8-2.3-2.4-3.7-5.5-3.7c-5.2,0-7.2,4.1-7.2,8.8c0,4.8,2.1,8.9,7.2,8.9c3.3,0,5.2-1.5,5.7-4.1L635,1168.3L635,1168.3z"/>
	<path class="st5" d="M659.7,1176.7v-15.3c0-4.1-1.9-6.4-5.8-6.4c-4.2,0-6.8,3.6-6.8,7.7v14h-5.8v-37.5h5.8v13.8h1.2
		c1.4-2,4-3.2,7.5-3.2c6.4,0,9.7,4,9.7,10.5v16.4H659.7z"/>
	<path class="st5" d="M696.8,1164.1h-19.4c0.2,5.4,2.6,8.3,7.4,8.3c3.1,0,4.9-1.2,5.7-3.3h5.9c-1,4.9-4.9,8.3-11.7,8.3
		c-8.2,0-13.1-5.8-13.1-14s4.9-13.6,12.9-13.6c7.9,0,12.1,5.5,12.2,12.3L696.8,1164.1L696.8,1164.1z M677.7,1159.7h13.1
		c-0.4-2.9-2.4-5.3-6.3-5.3C680.4,1154.4,678.4,1156.7,677.7,1159.7z"/>
	<path class="st5" d="M726.2,1168.3c-0.8,5.4-5.2,9.1-11.5,9.1c-8.1,0-13-5.8-13-13.8s4.8-13.8,13-13.8c6.4,0,10.6,3.5,11.3,8.7
		h-5.8c-0.8-2.3-2.4-3.7-5.5-3.7c-5.2,0-7.2,4.1-7.2,8.8c0,4.8,2.1,8.9,7.2,8.9c3.3,0,5.2-1.5,5.7-4.1L726.2,1168.3L726.2,1168.3z"
		/>
	<path class="st5" d="M751.4,1176.7l-6.8-13.2h-1.2l-5.1,5.6v7.6h-5.8v-37.5h5.8v22.8l11-11.6h6.6l-7.6,8.1l9.1,18.1L751.4,1176.7
		L751.4,1176.7z"/>
	<path class="st5" d="M787.2,1163.6c0,8-5,13.8-13.2,13.8s-13.2-5.8-13.2-13.8s5-13.8,13.2-13.8
		C782.2,1149.8,787.2,1155.6,787.2,1163.6z M781.3,1163.6c0-4.6-2.3-8.8-7.4-8.8s-7.4,4.2-7.4,8.8c0,4.7,2.3,8.9,7.4,8.9
		S781.3,1168.2,781.3,1163.6z"/>
	<path class="st5" d="M799.1,1150.5v15.3c0,4.3,2,6.4,5.8,6.4c4.2,0,6.8-3.6,6.8-7.7v-14h5.8v26.2H812v-2.5h-1.2
		c-1.5,2-4.1,3.2-7.6,3.2c-6.5,0-9.8-4-9.8-10.5v-16.4H799.1z"/>
	<path class="st5" d="M839.1,1150.5v4.9h-6.2v12.8c0,2.2,1.1,3.5,4,3.5h2.2v5.1h-2.3c-5.8,0-9.7-1.8-9.7-7.7v-13.6h-4.2v-4.9h4.2
		v-7.6h5.8v7.6h6.2V1150.5z"/>
</g>
<g>
	<path class="st5" d="M1056.1,1280v37.5h-5.8V1280H1056.1z"/>
	<path class="st5" d="M1089.1,1304.3c0,8-5,13.8-13.2,13.8s-13.2-5.8-13.2-13.8s5-13.8,13.2-13.8S1089.1,1296.3,1089.1,1304.3z
		 M1083.3,1304.3c0-4.6-2.3-8.8-7.4-8.8s-7.4,4.2-7.4,8.8c0,4.7,2.3,8.9,7.4,8.9C1081,1313.2,1083.3,1309,1083.3,1304.3z"/>
	<path class="st5" d="M1118.6,1309c-0.8,5.4-5.2,9.1-11.5,9.1c-8.1,0-13-5.8-13-13.8s4.8-13.8,13-13.8c6.4,0,10.6,3.5,11.3,8.7h-5.8
		c-0.8-2.3-2.4-3.7-5.5-3.7c-5.2,0-7.2,4.1-7.2,8.8c0,4.8,2.1,8.9,7.2,8.9c3.3,0,5.2-1.5,5.7-4.1L1118.6,1309L1118.6,1309z"/>
	<path class="st5" d="M1141.3,1315h-1.2c-1.6,2-4.1,3.1-7.7,3.1c-6,0-9.4-4.1-9.4-8.6c0-4.1,2.8-8.8,10.4-8.8h7.7v-0.8
		c0-2.9-1.6-4.8-5.5-4.8c-3.4,0-5.1,1.3-5.3,3.3h-5.8c0.3-4.9,4.6-7.9,10.8-7.9c6.8,0,11.3,3,11.3,9.5v17.4h-5.4L1141.3,1315
		L1141.3,1315z M1141.1,1306.8v-2h-6.7c-3.7,0-5.6,1.6-5.6,4.3c0,2.7,2,4.2,5.3,4.2C1138,1313.4,1141.1,1310.5,1141.1,1306.8z"/>
	<path class="st5" d="M1160.2,1280v37.5h-5.8V1280H1160.2z"/>
</g>
<g>
	<path class="st5" d="M252.3,1222.8l3.8,11.6h1.2l2.6-19.5h5.5l-3.7,26.2h-7.9l-4.2-12.8h-1.2l-4.2,12.8h-8l-3.7-26.2h5.6l2.7,19.5
		h1.2l3.8-11.6H252.3z"/>
	<path class="st5" d="M296.6,1228c0,8-5,13.8-13.2,13.8s-13.2-5.8-13.2-13.8s5-13.8,13.2-13.8S296.6,1220,296.6,1228z M290.8,1228
		c0-4.6-2.3-8.8-7.4-8.8s-7.4,4.2-7.4,8.8c0,4.7,2.3,8.9,7.4,8.9S290.8,1232.7,290.8,1228z"/>
	<path class="st5" d="M319.5,1220.3h-2.4c-5.4,0-8.2,3-8.2,8.6v12.3h-5.8V1215h5.6v3h1.2c1.1-1.4,3.2-3,7.3-3h2.2L319.5,1220.3
		L319.5,1220.3z"/>
	<path class="st5" d="M343.8,1241.1l-6.8-13.2h-1.2l-5.1,5.6v7.6h-5.8v-37.5h5.8v22.8l11-11.6h6.6l-7.6,8.1l9.1,18.1L343.8,1241.1
		L343.8,1241.1z"/>
	<path class="st5" d="M354.6,1209.3v-5.6h6v5.6H354.6z M360.5,1241.1h-5.8v-26.2h5.8V1241.1z"/>
	<path class="st5" d="M387.1,1241.1v-15.3c0-4.3-2-6.4-5.8-6.4c-4.2,0-6.8,3.6-6.8,7.7v14h-5.8v-26.2h5.6v2.5h1.2
		c1.5-2,4.1-3.2,7.6-3.2c6.5,0,9.8,4,9.8,10.5v16.4H387.1z"/>
	<path class="st5" d="M425,1214.9v24.9c0,7.4-5,12.1-12.7,12.1c-7,0-11.6-2.9-12.3-8.5h5.8c0.6,2.6,2.8,3.7,6.4,3.7
		c4.9,0,7-3.1,7-7.7v-1.8H418c-1.2,1.8-3.6,3.2-7.3,3.2c-7.2,0-11.5-5.7-11.5-13.3c0-7.7,4.5-13.3,11.5-13.3c3.9,0,6.3,1.5,7.5,3.2
		h1.2v-2.5L425,1214.9L425,1214.9z M419.3,1227.6c0-4.5-2.4-8.4-7.3-8.4c-4.5,0-7.2,3.5-7.2,8.4s2.6,8.3,7.2,8.3
		C416.9,1235.9,419.3,1232.1,419.3,1227.6z"/>
	<path class="st5" d="M295.5,1289.1c-0.8,5.4-5.2,9.1-11.5,9.1c-8.1,0-13-5.8-13-13.8s4.8-13.8,13-13.8c6.4,0,10.6,3.5,11.3,8.7
		h-5.8c-0.8-2.3-2.4-3.7-5.5-3.7c-5.2,0-7.2,4.1-7.2,8.8c0,4.8,2.1,8.9,7.2,8.9c3.3,0,5.2-1.5,5.7-4.1L295.5,1289.1L295.5,1289.1z"
		/>
	<path class="st5" d="M326.8,1284.4c0,8-5,13.8-13.2,13.8s-13.2-5.8-13.2-13.8s5-13.8,13.2-13.8S326.8,1276.4,326.8,1284.4z
		 M320.9,1284.4c0-4.6-2.3-8.8-7.4-8.8s-7.4,4.2-7.4,8.8c0,4.7,2.3,8.9,7.4,8.9S320.9,1289.1,320.9,1284.4z"/>
	<path class="st5" d="M338.9,1271.3v2.5h1.2c1.4-1.8,3.8-3.2,7.7-3.2c7.1,0,11.3,5.9,11.3,13.8c0,8-4.3,13.8-11.3,13.8
		c-3.9,0-6.1-1.3-7.5-3.2h-1.2v12.8h-5.8v-36.5L338.9,1271.3L338.9,1271.3z M338.9,1284.4c0,4.7,2.2,8.9,7.3,8.9
		c4.8,0,7.2-3.8,7.2-8.9s-2.4-8.8-7.2-8.8C341.1,1275.6,338.9,1279.8,338.9,1284.4z"/>
	<path class="st5" d="M368.3,1307.8l5.4-12.9l-11.1-23.7h6.1l7.3,15.8h1.3l6.6-15.8h6l-15.8,36.5L368.3,1307.8L368.3,1307.8z"/>
</g>
<g>
	<path class="st2" d="M153.3,1574.7l8.8-15.7h6.6l-13.1,23.2v13.6h-6.2v-13.6l-13.1-23.2h6.6l8.8,15.7H153.3z"/>
	<path class="st2" d="M193.1,1582.6c0,8-5,13.8-13.2,13.8s-13.2-5.8-13.2-13.8s5-13.8,13.2-13.8
		C188.1,1568.9,193.1,1574.6,193.1,1582.6z M187.3,1582.6c0-4.6-2.3-8.8-7.4-8.8s-7.4,4.2-7.4,8.8c0,4.7,2.3,8.9,7.4,8.9
		S187.3,1587.3,187.3,1582.6z"/>
	<path class="st2" d="M205.1,1569.5v15.3c0,4.3,2,6.4,5.8,6.4c4.2,0,6.8-3.6,6.8-7.7v-14h5.8v26.2h-5.6v-2.5h-1.2
		c-1.5,2-4.1,3.2-7.6,3.2c-6.5,0-9.8-4-9.8-10.5v-16.4H205.1z"/>
	<path class="st2" d="M248,1575h-2.4c-5.4,0-8.2,3-8.2,8.6v12.3h-5.8v-26.2h5.6v3h1.2c1.1-1.4,3.2-3,7.3-3h2.2L248,1575L248,1575z"
		/>
	<path class="st2" d="M290.7,1587.4c-0.8,5.4-5.2,9.1-11.5,9.1c-8.1,0-13-5.8-13-13.8s4.8-13.8,13-13.8c6.4,0,10.6,3.5,11.3,8.7
		h-5.8c-0.8-2.3-2.4-3.7-5.5-3.7c-5.2,0-7.2,4.1-7.2,8.8c0,4.8,2.1,8.9,7.2,8.9c3.3,0,5.2-1.5,5.7-4.1L290.7,1587.4L290.7,1587.4z"
		/>
	<path class="st2" d="M322,1582.6c0,8-5,13.8-13.2,13.8s-13.2-5.8-13.2-13.8s5-13.8,13.2-13.8C317,1568.9,322,1574.6,322,1582.6z
		 M316.2,1582.6c0-4.6-2.3-8.8-7.4-8.8s-7.4,4.2-7.4,8.8c0,4.7,2.3,8.9,7.4,8.9C313.8,1591.5,316.2,1587.3,316.2,1582.6z"/>
	<path class="st2" d="M366.1,1579v16.7h-5.8V1580c0-3.9-1.3-5.9-4.5-5.9c-3.7,0-5.6,2.8-5.6,6.8v14.9h-5.8v-15.7c0-3.9-1.4-6-4.5-6
		c-3.9,0-5.6,3.3-5.6,7.4v14.3h-5.8v-26.2h5.6v2.4h1.2c1.3-2,3.3-3,6.6-3c3.1,0,5.4,1.1,6.8,3.2h1.2c1.6-2.1,4-3.2,7.3-3.2
		C363.4,1568.9,366.1,1572.8,366.1,1579z"/>
	<path class="st2" d="M379.4,1569.5v2.5h1.2c1.4-1.8,3.8-3.2,7.7-3.2c7.1,0,11.3,5.9,11.3,13.8c0,8-4.3,13.8-11.3,13.8
		c-3.9,0-6.1-1.3-7.5-3.2h-1.2v12.8h-5.8v-36.5L379.4,1569.5L379.4,1569.5z M379.4,1582.6c0,4.7,2.2,8.9,7.3,8.9
		c4.8,0,7.2-3.8,7.2-8.9s-2.4-8.8-7.2-8.8C381.6,1573.8,379.4,1578.1,379.4,1582.6z"/>
	<path class="st2" d="M411.7,1569.5v15.3c0,4.3,2,6.4,5.8,6.4c4.2,0,6.8-3.6,6.8-7.7v-14h5.8v26.2h-5.6v-2.5h-1.2
		c-1.5,2-4.1,3.2-7.6,3.2c-6.5,0-9.8-4-9.8-10.5v-16.4H411.7z"/>
	<path class="st2" d="M451.6,1569.5v4.9h-6.2v12.8c0,2.2,1.1,3.5,4,3.5h2.2v5.1h-2.3c-5.8,0-9.7-1.8-9.7-7.7v-13.6h-4.2v-4.9h4.2
		v-7.6h5.8v7.6h6.2V1569.5z"/>
	<path class="st2" d="M481.9,1583.2h-19.4c0.2,5.4,2.6,8.3,7.4,8.3c3.1,0,4.9-1.2,5.7-3.4h5.9c-1,4.9-4.9,8.3-11.7,8.3
		c-8.2,0-13.1-5.8-13.1-14s4.9-13.6,12.9-13.6c7.9,0,12.1,5.5,12.2,12.3v2.1L481.9,1583.2L481.9,1583.2z M462.7,1578.8h13.1
		c-0.4-2.9-2.4-5.3-6.3-5.3C465.5,1573.5,463.4,1575.8,462.7,1578.8z"/>
	<path class="st2" d="M504.7,1575h-2.4c-5.4,0-8.2,3-8.2,8.6v12.3h-5.8v-26.2h5.6v3h1.2c1.1-1.4,3.2-3,7.3-3h2.2L504.7,1575
		L504.7,1575z"/>
</g>
<g>
	<path class="st5" d="M659,1403.6c-0.8,5.4-5.2,9.1-11.5,9.1c-8.1,0-13-5.8-13-13.8s4.8-13.8,13-13.8c6.4,0,10.6,3.5,11.3,8.7H653
		c-0.8-2.3-2.4-3.7-5.5-3.7c-5.2,0-7.2,4.1-7.2,8.8c0,4.8,2.1,8.9,7.2,8.9c3.3,0,5.2-1.5,5.7-4.1L659,1403.6L659,1403.6z"/>
	<path class="st5" d="M690.3,1398.8c0,8-5,13.8-13.2,13.8s-13.2-5.8-13.2-13.8s5-13.8,13.2-13.8
		C685.3,1385.1,690.3,1390.8,690.3,1398.8z M684.5,1398.8c0-4.6-2.3-8.8-7.4-8.8s-7.4,4.2-7.4,8.8c0,4.7,2.3,8.9,7.4,8.9
		S684.5,1403.5,684.5,1398.8z"/>
	<path class="st5" d="M734.4,1395.2v16.7h-5.8v-15.8c0-3.9-1.3-5.9-4.5-5.9c-3.7,0-5.6,2.8-5.6,6.8v14.9h-5.8v-15.7
		c0-3.9-1.4-6-4.5-6c-3.9,0-5.6,3.4-5.6,7.4v14.3h-5.8v-26.2h5.6v2.4h1.2c1.3-2,3.3-3,6.6-3c3.1,0,5.4,1.1,6.8,3.2h1.2
		c1.6-2.1,4-3.2,7.3-3.2C731.7,1385.1,734.4,1389,734.4,1395.2z"/>
	<path class="st5" d="M779.7,1395.2v16.7h-5.8v-15.8c0-3.9-1.3-5.9-4.5-5.9c-3.7,0-5.6,2.8-5.6,6.8v14.9H758v-15.7
		c0-3.9-1.4-6-4.5-6c-3.9,0-5.6,3.4-5.6,7.4v14.3h-5.8v-26.2h5.6v2.4h1.2c1.3-2,3.3-3,6.6-3c3.1,0,5.4,1.1,6.8,3.2h1.2
		c1.6-2.1,4-3.2,7.3-3.2C777,1385.1,779.7,1389,779.7,1395.2z"/>
	<path class="st5" d="M787.4,1380.1v-5.6h6v5.6H787.4z M793.3,1412h-5.8v-26.2h5.8V1412z"/>
	<path class="st5" d="M814.9,1385.7v4.9h-6.2v12.8c0,2.2,1.1,3.5,4,3.5h2.2v5.1h-2.3c-5.8,0-9.7-1.8-9.7-7.7v-13.6h-4.2v-4.9h4.2
		v-7.6h5.8v7.6h6.2V1385.7z"/>
</g>
<g>
	<path pointer-events="none" class="st6" d="M1053.4,555.1v516.8"/>
	<path class="st6" d="M1069.5,1067.5l-11.3,11.3c-2.3,2.3-6,2.3-8.4,0l-11.3-11.4"/>
</g>
<g>
	<path pointer-events="none" class="st6" d="M1186,563.7v516.8"/>
	<path class="st6" d="M1171.1,568.2l11.3-11.4c2.3-2.3,6-2.3,8.4,0l11.3,11.3"/>
</g>
<g>
	<path pointer-events="none" class="st6" d="M491.5,486h484.9"/>
	<path class="st6" d="M496,500.9l-11.4-11.3c-2.3-2.3-2.3-6,0-8.4l11.3-11.3"/>
</g>
<g>
	<path pointer-events="none" class="st6" d="M541.5,1216.7l407.9-17.3"/>
	<path class="st6" d="M546.6,1231.4l-11.8-10.8c-2.4-2.2-2.6-5.9-0.4-8.4l10.8-11.7"/>
</g>
<g>
	<path pointer-events="none" class="st6" d="M537.1,1298.2l401.4,74.4"/>
	<path class="st6" d="M937.1,1356l9,13.1c1.9,2.7,1.2,6.4-1.5,8.2l-13.2,9"/>
</g>
<g>
	<path pointer-events="none" class="st7" d="M482.4,259.4h484.9"/>
	<path class="st6" d="M963,243.3l11.3,11.3c2.3,2.3,2.3,6,0,8.4l-11.4,11.3"/>
</g>
<polyline class="st7" points="1291.4,369.1 1498.5,369.1 1498.5,1264.8 1271.7,1264.8 "/>
<path class="st6" d="M1278.3,1280.3l-11.4-11.3c-2.3-2.3-2.3-6,0-8.4l11.3-11.3"/>
</svg>
